<svg width="175" height="315" viewBox="0 0 175 315" fill="none" xmlns="http://www.w3.org/2000/svg">
<path d="M94.6667 285.667C78.8889 285.667 64.5555 282.667 51.6667 276.667C38.7778 270.667 27.8889 262.667 19 252.667C10.1111 242.444 3.77778 231.222 0 219L24 210C29.7778 226.889 38.7778 239.778 51 248.667C63.2222 257.333 77.7778 261.667 94.6667 261.667C105.333 261.667 114.667 260 122.667 256.667C130.889 253.111 137.222 248.222 141.667 242C146.111 235.778 148.333 228.556 148.333 220.333C148.333 208.111 145 198.667 138.333 192C131.667 185.333 122.111 180.222 109.667 176.667L65 163.333C47.4444 158.222 33.8889 149.667 24.3333 137.667C15 125.667 10.3333 112 10.3333 96.6667C10.3333 83.5556 13.5556 72 20 62C26.4444 51.7778 35.2222 43.7778 46.3333 38C57.6667 32.2222 70.4444 29.3333 84.6667 29.3333C99.5555 29.3333 112.889 32.1111 124.667 37.6667C136.667 43 146.778 50.1111 155 59C163.222 67.8889 169.111 77.7778 172.667 88.6667L149.333 98C144 83.3333 135.667 72.2222 124.333 64.6667C113.222 57.1111 100.111 53.3333 85 53.3333C75.4444 53.3333 67 55 59.6667 58.3333C52.5556 61.6667 47 66.4444 43 72.6667C39 78.8889 37 86.2222 37 94.6667C37 104.889 40.2222 114.111 46.6667 122.333C53.1111 130.333 63 136.333 76.3333 140.333L115.667 152C135.222 157.778 150 166.111 160 177C170 187.889 175 201.556 175 218C175 231.333 171.556 243.111 164.667 253.333C158 263.333 148.556 271.222 136.333 277C124.333 282.778 110.444 285.667 94.6667 285.667ZM80.3333 315V0H103.667V315H80.3333Z" fill="url(#paint0_linear_416_967)"/>
<defs>
<linearGradient id="paint0_linear_416_967" x1="9.58018" y1="297.59" x2="245.894" y2="166.305" gradientUnits="userSpaceOnUse">
<stop stop-color="#F0F6FF"/>
<stop offset="1" stop-color="#FCFDFF"/>
</linearGradient>
</defs>
</svg>
