<svg width="262" height="278" viewBox="0 0 262 278" fill="none" xmlns="http://www.w3.org/2000/svg">
<path d="M120.545 277.253V175.995C120.545 129.385 110.499 90.8104 90.4085 60.2724C69.5141 29.7344 39.3779 9.64355 -3.05176e-05 0V42.1906C24.1089 48.6197 41.387 60.6742 51.8342 78.3541C62.2814 95.2304 68.3087 117.33 69.9159 144.654H24.1089V277.253H120.545ZM261.362 277.253V175.995C261.362 129.385 251.317 90.8104 231.226 60.2724C210.331 29.7344 180.195 9.64355 140.817 0V42.1906C164.926 48.6197 182.204 60.6742 192.651 78.3541C203.099 95.2304 209.126 117.33 210.733 144.654H164.926V277.253H261.362Z" fill="url(#paint0_linear_416_1015)"/>
<defs>
<linearGradient id="paint0_linear_416_1015" x1="244.864" y1="261.929" x2="0.740521" y2="-3.42244" gradientUnits="userSpaceOnUse">
<stop stop-color="#E8F1FF"/>
<stop offset="1" stop-color="#F7FAFF"/>
</linearGradient>
</defs>
</svg>
