<svg width="318" height="514" viewBox="0 0 318 514" fill="none" xmlns="http://www.w3.org/2000/svg">
<g clip-path="url(#clip0_416_1054)">
<path d="M158.905 55.389C160.134 61.3501 162.006 67.0217 162.938 72.9193C163.616 77.2135 164.372 81.5078 164.739 85.8304C164.951 88.2671 165.763 89.3689 168.25 89.6656C179.932 91.057 191.049 94.3836 201.347 100.126C218.305 109.576 230.997 123.292 241.351 139.572C253.217 158.233 258.705 179.393 265.775 199.918C276.461 230.953 286.434 262.242 298.42 292.796C303.837 306.604 309.728 320.172 312.744 334.786C314.368 342.654 314.891 350.614 315.322 358.595C316.522 380.907 313.033 402.477 304.339 423.059C296.075 442.616 283.983 459.51 268.056 473.686C242.58 496.365 212.612 508.824 179.028 512.723C149.441 516.163 120.638 512.765 92.8736 501.45C68.0402 491.329 47.0562 476.123 30.55 454.955C21.0009 442.715 13.5353 429.302 8.64071 414.498C-4.53171 374.628 -1.4452 335.852 15.7461 297.747C21.9332 284.038 26.5029 269.63 31.3905 255.391C39.407 232.027 47.6 208.719 55.3622 185.27C59.9178 171.511 64.424 157.774 71.5576 145.089C83.3104 124.196 98.9407 107.175 121.034 96.9687C130.046 92.8086 139.645 90.3224 149.589 89.5314C152.019 89.3407 152.937 89.0299 152.047 86.2753C147.174 71.1677 140.054 57.3525 128.761 46.0306C121.987 39.2431 114.168 33.7975 105.297 29.9694C99.3645 27.4126 95.3668 23.1395 94.5829 16.5921C93.8201 10.2496 96.4475 5.2914 101.999 2.12719C107.134 -0.789812 112.382 -0.584986 117.424 2.45209C127.871 8.75225 136.177 17.362 143.43 27.0383C148.254 33.4797 148.162 33.5715 153.855 27.7516C167.925 13.3785 184.537 3.83643 204.638 0.813481C219.23 -1.3831 233.356 1.01831 246.952 5.92C272.979 15.2996 295.531 30.5132 316.204 48.6933C318.401 50.6286 318.528 51.6527 315.915 53.256C290.693 68.7027 264.052 80.625 234.5 84.5732C207.958 88.1117 184.713 80.5826 165.333 61.8234C164.231 60.7568 163.094 59.7327 162.013 58.6521C160.954 57.5926 159.944 56.4838 158.905 55.389ZM223.828 368.045C223.885 360.467 222.769 351.843 220.212 343.487C213.283 320.822 201.792 300.961 182.757 286.341C166.957 274.207 153.735 272.497 136.579 284.413C125.37 292.196 116.746 302.338 109.641 313.865C96.4899 335.216 89.2503 357.98 93.5234 383.336C97.1396 404.773 109.133 419.414 129.714 426.738C143.169 431.527 157.069 432.403 171.11 430.475C186.712 428.335 200.647 422.592 210.952 410.077C220.713 398.225 223.842 384.205 223.828 368.045Z" fill="url(#paint0_linear_416_1054)"/>
</g>
<defs>
<linearGradient id="paint0_linear_416_1054" x1="17.862" y1="485.595" x2="423.907" y2="234.881" gradientUnits="userSpaceOnUse">
<stop stop-color="#F0F6FF"/>
<stop offset="1" stop-color="#FCFDFF"/>
</linearGradient>
<clipPath id="clip0_416_1054">
<rect width="317.374" height="514" fill="white" transform="translate(0.489746)"/>
</clipPath>
</defs>
</svg>
