<svg width="192" height="310" viewBox="0 0 192 310" fill="none" xmlns="http://www.w3.org/2000/svg">
<g opacity="0.04" clip-path="url(#clip0_416_1070)">
<path d="M95.5426 33.4054C96.2838 37.0006 97.4126 40.4212 97.9749 43.9781C98.3838 46.5681 98.8396 49.158 99.0611 51.765C99.1889 53.2346 99.6788 53.8991 101.178 54.078C108.224 54.9172 114.929 56.9235 121.139 60.3867C131.367 66.0863 139.022 74.3587 145.267 84.1775C152.423 95.4318 155.733 108.194 159.997 120.573C166.442 139.29 172.457 158.161 179.686 176.589C182.953 184.917 186.506 193.1 188.324 201.913C189.304 206.658 189.619 211.459 189.879 216.273C190.603 229.729 188.499 242.739 183.255 255.152C178.271 266.947 170.979 277.136 161.373 285.686C146.008 299.364 127.934 306.878 107.679 309.229C89.8345 311.304 72.4632 309.255 55.718 302.431C40.7407 296.326 28.085 287.155 18.1299 274.389C12.3707 267.007 7.86812 258.917 4.9161 249.989C-3.02836 225.942 -1.16684 202.556 9.20143 179.575C12.933 171.307 15.689 162.617 18.6368 154.029C23.4716 139.938 28.413 125.881 33.0944 111.738C35.842 103.44 38.5597 95.1549 42.8621 87.5044C49.9503 74.904 59.3772 64.638 72.7017 58.4826C78.1372 55.9736 83.9262 54.4742 89.924 53.9971C91.3893 53.8821 91.9431 53.6946 91.4063 52.0333C88.4671 42.9217 84.1733 34.5896 77.3619 27.7612C73.2768 23.6676 68.5612 20.3833 63.211 18.0745C59.6328 16.5325 57.2217 13.9553 56.7489 10.0065C56.2889 6.18124 57.8735 3.19089 61.2217 1.28251C64.3185 -0.47677 67.4835 -0.353237 70.525 1.47846C76.8252 5.27817 81.8347 10.4708 86.2094 16.3067C89.1189 20.1916 89.0635 20.247 92.4968 16.7369C100.982 8.06831 111.001 2.31337 123.125 0.490196C131.925 -0.83459 140.445 0.613729 148.645 3.57C164.342 9.22697 177.943 18.4025 190.412 29.3671C191.737 30.5343 191.813 31.152 190.237 32.1189C175.025 41.435 158.958 48.6255 141.135 51.0067C125.127 53.1409 111.108 48.6 99.419 37.286C98.7544 36.6428 98.0686 36.0251 97.4169 35.3734C96.7779 34.7344 96.1688 34.0656 95.5426 33.4054ZM134.698 221.972C134.732 217.402 134.059 212.2 132.517 207.161C128.338 193.492 121.408 181.513 109.928 172.695C100.399 165.377 92.4244 164.346 82.0775 171.532C75.3172 176.227 70.116 182.344 65.8307 189.296C57.899 202.173 53.5328 215.902 56.1099 231.195C58.2909 244.123 65.524 252.954 77.937 257.371C86.0518 260.259 94.435 260.787 102.903 259.624C112.313 258.334 120.718 254.87 126.933 247.322C132.82 240.174 134.707 231.719 134.698 221.972Z" fill="#BDD1F5"/>
</g>
<defs>
<clipPath id="clip0_416_1070">
<rect width="191.412" height="310" fill="white"/>
</clipPath>
</defs>
</svg>
