<svg width="159" height="258" viewBox="0 0 159 258" fill="none" xmlns="http://www.w3.org/2000/svg">
<g clip-path="url(#clip0_416_1066)">
<path d="M79.3279 27.7361C79.9433 30.7212 80.8806 33.5613 81.3475 36.5145C81.687 38.6649 82.0654 40.8153 82.2494 42.9799C82.3555 44.2001 82.7622 44.7519 84.0072 44.9004C89.8571 45.5972 95.4241 47.263 100.581 50.1385C109.073 54.8708 115.429 61.7393 120.614 69.8918C126.555 79.2362 129.304 89.8326 132.844 100.111C138.195 115.652 143.189 131.32 149.191 146.62C151.904 153.535 154.854 160.329 156.364 167.647C157.178 171.587 157.439 175.573 157.655 179.57C158.256 190.742 156.509 201.544 152.155 211.85C148.017 221.644 141.962 230.104 133.986 237.203C121.229 248.559 106.222 254.798 89.4044 256.751C74.5885 258.473 60.1653 256.772 46.2619 251.106C33.8263 246.038 23.3183 238.423 15.0527 227.823C10.2709 221.693 6.53245 214.977 4.08141 207.564C-2.51482 187.598 -0.969216 168.181 7.63948 149.1C10.7378 142.235 13.0261 135.019 15.4736 127.889C19.4879 116.189 23.5907 104.518 27.4777 92.7752C29.7589 85.8854 32.0155 79.0063 35.5877 72.6541C41.473 62.1921 49.3001 53.6683 60.3633 48.5575C64.8764 46.4743 69.6829 45.2293 74.6628 44.8332C75.8795 44.7377 76.3393 44.5821 75.8936 43.2027C73.4532 35.6374 69.8881 28.7193 64.2326 23.0497C60.8408 19.6508 56.9255 16.9239 52.4832 15.0069C49.5123 13.7266 47.5104 11.5868 47.1178 8.30814C46.7358 5.13205 48.0515 2.64918 50.8315 1.06467C53.4028 -0.396052 56.0307 -0.293483 58.556 1.22736C63.787 4.38223 67.9463 8.69366 71.5787 13.5391C73.9944 16.7647 73.9484 16.8107 76.7991 13.8964C83.8445 6.69887 92.1632 1.92059 102.229 0.406813C109.536 -0.693148 116.61 0.509382 123.418 2.96396C136.452 7.66089 147.745 15.2793 158.097 24.3831C159.197 25.3522 159.261 25.8651 157.952 26.6679C145.322 34.403 131.981 40.3732 117.183 42.3503C103.891 44.1223 92.2516 40.352 82.5465 30.9581C81.9947 30.4241 81.4253 29.9112 80.8841 29.3701C80.3536 28.8396 79.8478 28.2843 79.3279 27.7361ZM111.839 184.302C111.867 180.507 111.308 176.188 110.028 172.004C106.558 160.654 100.804 150.709 91.2719 143.388C83.3599 137.311 76.7389 136.455 68.1479 142.422C62.535 146.32 58.2165 151.399 54.6584 157.171C48.0728 167.863 44.4475 179.262 46.5873 191.959C48.3982 202.693 54.4037 210.025 64.7101 213.693C71.4478 216.091 78.4083 216.53 85.4396 215.564C93.2525 214.492 100.231 211.617 105.391 205.35C110.279 199.415 111.846 192.394 111.839 184.302Z" fill="url(#paint0_linear_416_1066)"/>
</g>
<defs>
<linearGradient id="paint0_linear_416_1066" x1="8.69905" y1="243.166" x2="212.03" y2="117.619" gradientUnits="userSpaceOnUse">
<stop stop-color="#F0F6FF"/>
<stop offset="1" stop-color="#FCFDFF"/>
</linearGradient>
<clipPath id="clip0_416_1066">
<rect width="158.928" height="257.391" fill="white"/>
</clipPath>
</defs>
</svg>
