<svg width="31" height="50" viewBox="0 0 31 50" fill="none" xmlns="http://www.w3.org/2000/svg">
<g clip-path="url(#clip0_416_1084)">
<path d="M15.2001 5.3146C15.318 5.88658 15.4976 6.43077 15.587 6.99665C15.6521 7.40869 15.7246 7.82073 15.7598 8.23548C15.7802 8.46929 15.8581 8.57501 16.0967 8.60347C17.2176 8.73698 18.2843 9.05617 19.2724 9.60714C20.8995 10.5139 22.1173 11.83 23.1108 13.3921C24.2494 15.1826 24.7759 17.213 25.4543 19.1823C26.4797 22.1602 27.4366 25.1624 28.5866 28.0941C29.1064 29.419 29.6716 30.7208 29.961 32.123C30.1169 32.878 30.167 33.6417 30.2084 34.4075C30.3236 36.5484 29.9888 38.6181 29.1546 40.5929C28.3616 42.4694 27.2014 44.0905 25.6732 45.4506C23.2288 47.6267 20.3533 48.8222 17.1308 49.1963C14.2919 49.5263 11.5283 49.2003 8.86426 48.1147C6.48147 47.1435 4.46803 45.6844 2.88424 43.6534C1.968 42.4789 1.25167 41.192 0.782022 39.7715C-0.481886 35.9459 -0.185731 32.2253 1.46379 28.5691C2.05745 27.2537 2.49592 25.8712 2.96489 24.505C3.73408 22.2632 4.52021 20.0268 5.265 17.7768C5.70211 16.4566 6.13449 15.1385 6.81896 13.9214C7.94665 11.9167 9.4464 10.2835 11.5662 9.30421C12.431 8.90505 13.352 8.6665 14.3062 8.5906C14.5393 8.5723 14.6274 8.54248 14.542 8.27818C14.0744 6.82858 13.3913 5.503 12.3076 4.41665C11.6577 3.76538 10.9075 3.24288 10.0563 2.87556C9.48706 2.63024 9.10348 2.22023 9.02826 1.592C8.95507 0.983428 9.20717 0.507684 9.73984 0.204075C10.2325 -0.0758148 10.7361 -0.0561615 11.2199 0.235249C12.2223 0.839756 13.0192 1.66587 13.7152 2.59432C14.1781 3.21238 14.1693 3.22119 14.7155 2.66277C16.0655 1.28365 17.6594 0.368078 19.5882 0.0780228C20.9883 -0.132741 22.3437 0.0976761 23.6483 0.567999C26.1456 1.46798 28.3095 2.92775 30.2931 4.67214C30.5039 4.85783 30.516 4.9561 30.2653 5.10994C27.8452 6.59206 25.289 7.73602 22.4535 8.11485C19.9067 8.45438 17.6764 7.73195 15.8168 5.93198C15.711 5.82965 15.6019 5.73139 15.4982 5.6277C15.3966 5.52604 15.2997 5.41964 15.2001 5.3146ZM21.4295 35.3143C21.4349 34.5871 21.3278 33.7596 21.0825 32.9579C20.4177 30.7832 19.315 28.8775 17.4886 27.4747C15.9726 26.3104 14.704 26.1464 13.0579 27.2897C11.9823 28.0365 11.1549 29.0097 10.4731 30.1157C9.21124 32.1643 8.5166 34.3486 8.92661 36.7815C9.27359 38.8383 10.4243 40.2432 12.3991 40.946C13.6901 41.4054 15.0239 41.4895 16.3711 41.3045C17.8682 41.0991 19.2053 40.5481 20.194 39.3473C21.1306 38.2101 21.4308 36.8649 21.4295 35.3143Z" fill="#727C8F"/>
</g>
<defs>
<clipPath id="clip0_416_1084">
<rect width="30.4524" height="49.3188" fill="white"/>
</clipPath>
</defs>
</svg>
