<svg width="191" height="309" viewBox="0 0 191 309" fill="none" xmlns="http://www.w3.org/2000/svg">
<g clip-path="url(#clip0_416_1058)">
<path d="M95.2342 33.2976C95.973 36.8813 97.0982 40.2908 97.6587 43.8362C98.0663 46.4178 98.5206 48.9994 98.7414 51.598C98.8688 53.0629 99.3571 53.7252 100.852 53.9036C107.875 54.74 114.558 56.7399 120.749 60.1919C130.943 65.8731 138.573 74.1189 144.798 83.906C151.931 95.1239 155.23 107.845 159.481 120.184C165.905 138.841 171.9 157.651 179.106 176.019C182.363 184.32 185.904 192.477 187.717 201.262C188.693 205.992 189.008 210.777 189.267 215.575C189.988 228.988 187.891 241.956 182.664 254.329C177.696 266.086 170.427 276.242 160.852 284.764C145.537 298.398 127.521 305.888 107.331 308.232C89.5445 310.3 72.2292 308.257 55.5381 301.455C40.6091 295.371 27.9942 286.229 18.0712 273.504C12.3306 266.145 7.84254 258.082 4.90004 249.182C-3.01879 225.214 -1.16328 201.903 9.17154 178.996C12.8911 170.754 15.6382 162.092 18.5765 153.532C23.3957 139.486 28.3211 125.475 32.9875 111.378C35.7262 103.106 38.4351 94.848 42.7236 87.2221C49.789 74.6624 59.1855 64.4295 72.467 58.2939C77.8849 55.793 83.6553 54.2984 89.6337 53.8229C91.0943 53.7082 91.6463 53.5214 91.1113 51.8655C88.1815 42.7832 83.9016 34.478 77.1122 27.6716C73.0402 23.5912 68.3399 20.3175 63.0069 18.0162C59.4402 16.4791 57.037 13.9103 56.5657 9.97422C56.1071 6.16129 57.6866 3.18058 61.024 1.27836C64.1108 -0.475243 67.2656 -0.352108 70.2973 1.47368C76.5772 5.26113 81.5705 10.437 85.9312 16.2541C88.8312 20.1265 88.776 20.1817 92.1983 16.6829C100.656 8.04228 110.643 2.3059 122.727 0.488604C131.499 -0.831909 139.992 0.611739 148.165 3.55848C163.812 9.1972 177.369 18.3431 189.797 29.2724C191.118 30.4358 191.194 31.0515 189.623 32.0153C174.461 41.3014 158.445 48.4687 140.679 50.8422C124.723 52.9694 110.749 48.4432 99.0981 37.1657C98.4357 36.5246 97.7521 35.9089 97.1024 35.2593C96.4655 34.6224 95.8583 33.9557 95.2342 33.2976ZM134.264 221.256C134.298 216.7 133.627 211.516 132.09 206.493C127.924 192.867 121.016 180.928 109.573 172.138C100.075 164.844 92.1261 163.816 81.8125 170.979C75.0741 175.658 69.8897 181.756 65.6182 188.685C57.7121 201.521 53.3599 215.206 55.9288 230.449C58.1027 243.336 65.3125 252.138 77.6854 256.541C85.774 259.42 94.1302 259.946 102.571 258.787C111.951 257.5 120.328 254.048 126.523 246.524C132.391 239.4 134.272 230.971 134.264 221.256Z" fill="url(#paint0_linear_416_1058)"/>
</g>
<defs>
<linearGradient id="paint0_linear_416_1058" x1="10.4436" y1="291.923" x2="254.545" y2="141.202" gradientUnits="userSpaceOnUse">
<stop stop-color="#F0F6FF"/>
<stop offset="1" stop-color="#FCFDFF"/>
</linearGradient>
<clipPath id="clip0_416_1058">
<rect width="190.795" height="309" fill="white"/>
</clipPath>
</defs>
</svg>
