<svg width="150" height="18" viewBox="0 0 150 18" fill="none" xmlns="http://www.w3.org/2000/svg">
<path d="M82.5519 6.19653C82.4173 8.49195 81.2389 10.3844 78.5527 11.6558C77.9418 11.9442 78.0143 12.2052 78.2918 12.5929C79.203 13.8764 80.0915 15.1676 80.9759 16.4618C81.4419 17.141 81.3466 17.2417 80.3276 17.2448C78.9152 17.2478 77.5006 17.2234 76.0902 17.2722C75.1935 17.3027 74.7109 17.0662 74.4147 16.4328C73.9322 15.4011 73.3233 14.4014 72.8014 13.3789C72.5922 12.9698 72.3002 12.7501 71.6644 12.7959C71.0493 12.8401 70.4259 12.834 69.8066 12.834C68.5329 12.8325 68.4418 12.8935 68.3072 13.8611C68.1829 14.7448 68.04 15.627 67.9241 16.5122C67.8619 16.9822 67.632 17.2448 66.8927 17.231C65.5838 17.2051 64.2728 17.228 62.9639 17.2661C62.1852 17.289 61.9304 17.0814 62.0298 16.5045C62.4834 13.8856 62.8955 11.262 63.3284 8.64152C63.6825 6.49872 64.0532 4.35898 64.397 2.21618C64.5834 1.05626 64.5731 1.06847 66.1616 1.06847C68.6759 1.06847 71.1922 1.04253 73.7065 1.01963C74.9884 1.00895 76.2621 1.08679 77.5068 1.29588C80.9759 1.87431 82.67 3.5394 82.5519 6.19653ZM71.5898 9.30694C72.2671 9.33747 73.1597 9.33289 74.0461 9.22148C75.8417 8.99407 77.103 7.75326 76.9725 6.33694C76.8648 5.16939 75.792 4.57265 73.7313 4.56196C72.7703 4.55738 71.8073 4.61233 70.8463 4.59707C70.0987 4.58486 69.7984 4.84736 69.7342 5.36017C69.6368 6.14159 69.4939 6.91995 69.3945 7.70137C69.1936 9.26726 69.1998 9.26726 71.5898 9.30694Z" fill="#364050"/>
<path d="M15.8058 17.2444C13.6829 17.713 12.5294 16.9361 12.0385 15.3336C11.8438 14.6972 11.3551 14.1127 11.0734 13.4854C10.8642 13.0184 10.4956 12.8383 9.84942 12.8627C9.33373 12.8825 8.81389 12.8474 8.29613 12.8398C6.84225 12.82 6.67449 12.9421 6.53158 14.044C6.42596 14.8529 6.27063 15.6587 6.17122 16.4691C6.09874 17.0689 5.80879 17.3711 4.87681 17.3238C3.60725 17.2582 2.32527 17.2902 1.05157 17.3192C0.297702 17.336 0.196222 17.0598 0.272851 16.6019C0.618717 14.5339 0.941801 12.4644 1.28767 10.3963C1.71431 7.8491 2.18443 5.30644 2.57794 2.75768C2.88652 0.764448 2.84303 1.0819 5.05285 1.08495C7.74316 1.088 10.4335 1.09869 13.1238 1.11242C14.6211 1.12005 16.0771 1.28641 17.444 1.7748C19.6952 2.57758 20.7805 3.91912 20.8032 5.73836C20.8364 8.27186 19.6559 10.3689 16.6673 11.7745C16.1682 12.0095 16.2697 12.2217 16.4851 12.5285C17.3839 13.8166 18.2662 15.1123 19.1423 16.4111C19.6807 17.2109 19.6145 17.2918 18.3635 17.307C17.5703 17.3116 16.7771 17.2689 15.8058 17.2444ZM15.1555 6.74566C15.2777 5.50027 14.4617 4.76769 12.7427 4.67307C11.5435 4.60744 10.3361 4.64712 9.13491 4.59523C8.38311 4.56318 8.07452 4.80585 7.99375 5.3217C7.81771 6.45262 7.62096 7.58354 7.42007 8.71294C7.34344 9.14791 7.4822 9.38752 8.17187 9.3631C9.26953 9.32495 10.3693 9.3341 11.469 9.31884C13.6602 9.28832 14.9981 8.35275 15.1555 6.74566Z" fill="#364050"/>
<path d="M53.9755 6.0515C54.282 4.31772 54.6258 2.61753 54.8639 0.909701C54.953 0.27785 55.3196 0.0748645 56.1128 0.0962314C57.285 0.128282 58.4593 0.154227 59.6294 0.134387C60.4993 0.120651 60.6836 0.427419 60.5863 0.987537C60.259 2.85104 59.9587 4.71759 59.6439 6.58109C59.1034 9.78155 58.5504 12.979 58.0285 16.1809C57.8566 17.2325 57.8421 17.26 56.3924 17.2523C55.3941 17.2478 54.3917 17.2478 53.3956 17.2935C52.4698 17.3363 51.981 17.1547 52.2813 16.3961C52.3145 16.3107 52.2689 16.2069 52.2523 16.0237C51.1257 16.6434 50.0218 17.144 48.7087 17.3256C44.5666 17.8979 41.2384 16.2466 40.6068 13.1621C40.1242 10.8056 40.8449 8.61095 42.9243 6.72455C45.2294 4.63365 50.5913 3.50731 53.9755 6.0515ZM46.2276 11.4207C46.1655 12.5379 46.8158 13.5009 47.9218 13.8336C49.299 14.2472 50.5789 14.0656 51.6497 13.3208C53.0083 12.3746 53.4204 11.1628 53.1139 9.83954C52.8384 8.6491 51.7574 8.05235 50.1233 8.07525C47.9777 8.10577 46.3333 9.51751 46.2276 11.4207Z" fill="#364050"/>
<path d="M131.493 11.6312C131.855 5.16775 140.84 3.24168 146.378 5.28985C149.31 6.37346 150.547 8.8276 149.776 11.5977C148.279 16.9821 139.972 18.4992 135.001 16.5411C132.62 15.604 131.392 13.8641 131.493 11.6312ZM144.195 10.685C144.276 9.45487 143.658 8.54525 142.509 8.20033C141.078 7.76994 139.347 8.1057 138.33 9.07027C137.375 9.97683 137.017 11.0238 137.333 12.1578C137.725 13.5634 139.241 14.2334 141.128 13.8687C142.917 13.5237 144.087 12.3104 144.195 10.685Z" fill="#364050"/>
<path d="M91.0805 17.3773C88.4751 17.2567 86.0105 16.6783 84.6167 14.7721C83.1401 12.7575 83.4859 10.6605 84.6975 8.66724C86.7499 5.28669 92.143 3.67044 96.8815 4.91888C99.5781 5.62856 101.204 7.42186 101.158 9.91263C101.111 12.4889 101.222 12.1027 98.2091 12.1562C95.6596 12.2004 93.1081 12.1562 90.5565 12.1592C90.2293 12.1592 89.8151 12.0417 89.6059 12.3118C89.3843 12.5988 89.6825 12.8491 89.871 13.081C90.5524 13.9281 92.0456 14.3112 93.6155 14.0578C94.5371 13.9082 95.409 13.6534 96.1401 13.2184C96.6889 12.8918 97.0306 12.9864 97.4117 13.3588C97.8052 13.7434 98.207 14.1341 98.6875 14.4577C99.4641 14.9796 99.1866 15.3246 98.4887 15.7199C96.3389 16.9393 93.8889 17.3987 91.0805 17.3773ZM91.3684 9.8119C92.4723 9.79359 93.5388 9.76917 94.6075 9.76153C95.7383 9.7539 95.993 9.47156 95.5519 8.68098C94.8125 7.35776 92.1844 7.2204 90.6973 8.44442C90.2914 8.77866 89.6805 9.19073 89.8917 9.60739C90.0905 10.0011 90.8879 9.7127 91.3684 9.8119Z" fill="#364050"/>
<path d="M32.3245 4.64125C38.0924 4.57562 40.091 8.13322 39.2357 11.6191C39.0969 12.1884 38.6081 12.1945 38.0282 12.1914C35.3752 12.1792 32.7201 12.1746 30.0671 12.1655C29.7564 12.1639 29.4354 12.1227 29.1392 12.17C28.6919 12.2418 28.0188 12.0434 27.8469 12.4478C27.675 12.8523 28.1203 13.2185 28.5179 13.5024C29.5845 14.267 30.8996 14.1953 32.2148 14.0274C32.7947 13.9542 33.387 13.8016 33.8095 13.51C34.7249 12.8797 35.4083 13.0339 36.0359 13.7405C36.1664 13.8885 36.3527 14.0076 36.5122 14.1419C37.7611 15.1873 37.7611 15.2728 36.1332 16.0527C33.4553 17.3362 30.5227 17.7117 27.4223 17.205C23.9202 16.6327 22.0024 14.9019 21.9651 12.109C21.934 9.68995 23.0586 7.56699 25.7655 6.04231C27.6791 4.96786 29.8683 4.52831 32.3245 4.64125ZM30.8582 9.84715C30.8582 9.83036 30.8603 9.8151 30.8603 9.79831C31.4443 9.81357 32.0284 9.83188 32.6124 9.84104C33.998 9.86241 34.3376 9.45796 33.7018 8.5514C33.5237 8.29652 33.2607 8.1088 32.9355 7.9516C31.173 7.10608 28.9363 8.00349 28.1431 9.37708C27.9546 9.70368 28.2301 9.77847 28.5925 9.78762C29.3484 9.80899 30.1023 9.82883 30.8582 9.84715Z" fill="#364050"/>
<path d="M107.947 17.4109C105.895 17.301 103.875 16.95 102.065 16.0556C101.398 15.726 101.301 15.4222 101.751 14.94C102.219 14.4378 102.633 13.9067 103.035 13.3741C103.356 12.9483 103.689 12.8781 104.265 13.1665C105.385 13.7281 106.618 14.128 107.97 14.2852C108.411 14.3371 108.867 14.3875 109.306 14.3554C109.942 14.3096 110.724 14.3066 110.849 13.6854C110.973 13.0566 110.178 12.9864 109.629 12.8353C108.533 12.5301 107.386 12.321 106.307 11.9898C102.77 10.9001 102.088 8.00487 104.913 6.06658C107.183 4.50833 109.96 4.3145 112.86 4.61516C114.301 4.76473 115.666 5.12339 116.942 5.66214C117.478 5.88954 117.596 6.12458 117.24 6.51376C116.644 7.16698 116.267 8.02471 115.461 8.45662C114.471 8.98775 113.607 8.00792 112.605 7.85988C111.696 7.72557 110.822 7.47222 109.869 7.55769C109.287 7.60958 108.713 7.73015 108.631 8.21091C108.556 8.64282 109.126 8.78171 109.554 8.92822C109.927 9.05643 110.329 9.14189 110.72 9.23804C111.505 9.43187 112.303 9.60128 113.075 9.81648C116.965 10.8955 117.652 14.0548 114.43 16.0312C112.568 17.1697 110.348 17.4399 107.947 17.4109Z" fill="#364050"/>
<path d="M129.018 5.27133C131.408 5.34459 131.164 5.00119 130.938 6.89827C130.799 8.07345 130.756 8.06887 129.169 8.12076C128.929 8.12839 128.689 8.15586 128.449 8.16807C126.361 8.26422 126.353 8.2627 126.115 9.7828C125.959 10.7657 125.804 11.7501 125.698 12.736C125.595 13.7189 126.11 14.0394 127.415 13.8608C129.078 13.6334 129.078 13.6334 129.316 14.891C129.668 16.7438 129.573 16.8476 127.042 17.2139C125.684 17.4108 124.323 17.5298 122.954 17.2154C120.825 16.7255 119.62 15.4572 119.814 13.7143C119.976 12.2736 120.255 10.8405 120.537 9.40888C120.757 8.2917 120.769 8.25049 119.297 8.15739C118.675 8.11923 118.418 7.95898 118.553 7.48586C118.638 7.18977 118.644 6.88148 118.679 6.57777C118.822 5.35527 118.82 5.33848 120.448 5.24539C121.009 5.21333 121.229 5.03477 121.291 4.64253C121.407 3.91301 121.583 3.18653 121.703 2.457C121.767 2.06477 122.008 1.88468 122.554 1.85415C123.967 1.77479 125.377 1.83126 126.79 1.85873C127.374 1.87094 127.44 2.14871 127.38 2.49211C127.281 3.07054 127.204 3.65355 127.082 4.22893C126.87 5.22555 126.875 5.23623 128.289 5.25302C128.536 5.25607 128.776 5.26523 129.018 5.27133Z" fill="#364050"/>
</svg>
