<svg width="132" height="16" viewBox="0 0 132 16" fill="none" xmlns="http://www.w3.org/2000/svg">
<path d="M131.984 7.849C131.986 10.0615 131.965 12.2741 132 14.4866C132.009 15.0377 131.802 15.3066 130.969 15.2703C130.245 15.239 129.519 15.2653 128.793 15.2571C128.411 15.2538 128.034 15.201 127.988 14.8677C127.913 14.343 127.585 14.541 127.21 14.6994C123.374 16.3196 118.782 15.0806 117.451 11.9886C116.606 10.0252 116.709 8.06514 118.37 6.27829C120.214 4.2951 123.884 3.63018 126.814 4.77357C127.615 5.0854 127.785 4.98641 127.762 4.38254C127.724 3.4058 127.75 2.4274 127.755 1.449C127.759 0.373262 127.785 0.355113 129.249 0.351813C129.829 0.350163 130.413 0.378211 130.99 0.343563C131.76 0.297366 132.068 0.526703 131.984 1.05632C131.979 1.08107 131.984 1.10747 131.984 1.13387C131.981 3.3728 131.981 5.61173 131.984 7.849ZM127.818 9.63586C127.799 8.91154 127.531 8.07669 126.463 7.47942C125.406 6.88876 124.01 6.83266 122.893 7.32763C121.582 7.91005 120.977 9.31412 121.426 10.7347C121.748 11.7527 122.746 12.4704 124.003 12.5892C124.038 12.5925 124.075 12.5941 124.112 12.5974C126.363 12.7608 127.722 11.7395 127.818 9.63586Z" fill="#364050"/>
<path d="M36.5397 5.64302C38.3062 4.56398 40.2171 4.1713 42.3862 4.56893C43.4313 4.76032 44.3576 5.1134 45.007 5.74037C45.3677 6.08685 45.5609 6.1512 46.0543 5.79151C47.9 4.44189 50.1669 4.10696 52.655 4.67288C54.9521 5.1959 55.8878 6.49273 56.1322 8.08489C56.465 10.2661 56.2183 12.4572 56.2741 14.6433C56.2904 15.2422 55.7086 15.3049 55.0895 15.2587C54.489 15.2142 53.6139 15.5227 53.5371 14.6961C53.3858 13.0759 53.4905 11.454 53.4719 9.83214C53.4672 9.37017 53.4649 8.90324 53.3834 8.44622C53.174 7.24673 52.3082 6.59172 50.7441 6.39373C49.2522 6.20564 47.6998 6.74681 46.9993 7.70871C46.4337 8.48747 46.3522 9.34047 46.3336 10.1902C46.3033 11.5794 46.2754 12.9719 46.3429 14.3611C46.3801 15.1036 45.9356 15.2818 44.9883 15.2801C44.069 15.2785 43.5663 15.1515 43.5965 14.3859C43.6617 12.8432 43.6198 11.2973 43.6128 9.7513C43.6105 9.36522 43.6151 8.97749 43.557 8.59471C43.3545 7.28798 42.3141 6.49933 40.643 6.36073C39.0627 6.23039 37.4707 6.9514 36.8911 8.06839C36.6142 8.60461 36.4885 9.16063 36.4931 9.73315C36.5025 11.2527 36.4536 12.7723 36.5118 14.2902C36.5397 15.0195 36.2092 15.2917 35.1502 15.2851C34.1378 15.2785 33.7374 15.0739 33.7491 14.3149C33.798 11.4062 33.7654 8.49572 33.77 5.58693C33.77 5.0804 33.6118 4.52933 34.7825 4.52438C36.2604 4.51943 36.3349 4.52438 36.5397 5.64302Z" fill="#364050"/>
<path d="M100.449 9.79754C100.465 6.49277 103.598 4.2027 108.074 4.22415C112.533 4.2456 115.633 6.56867 115.612 9.87179C115.592 13.1287 112.375 15.4501 107.923 15.4237C103.556 15.3973 100.433 13.0462 100.449 9.79754ZM104.711 9.81404C104.69 10.2067 104.801 10.5829 104.969 10.9508C105.451 12.0084 106.64 12.6304 108.12 12.609C109.61 12.5892 110.695 11.9391 111.109 10.8254C111.456 9.89489 111.379 8.98744 110.736 8.13774C109.81 6.9135 107.611 6.61982 106.093 7.48932C105.041 8.09154 104.755 8.91649 104.711 9.81404Z" fill="#364050"/>
<path d="M99.0736 9.84701C99.0783 13.1105 95.9805 15.4138 91.5769 15.4237C87.1361 15.4336 83.9033 13.0396 83.9173 9.75297C83.9312 6.55874 87.1478 4.22742 91.542 4.22742C96.0107 4.22577 99.069 6.50759 99.0736 9.84701ZM94.8144 9.85361C94.826 9.22664 94.6701 8.62608 94.2232 8.07831C93.0642 6.66269 90.2782 6.61649 88.9655 7.98756C87.8739 9.1293 88.0229 10.9211 89.2937 11.9358C90.0874 12.571 91.5304 12.8069 92.6871 12.4902C94.0045 12.1321 94.8051 11.1389 94.8144 9.85361Z" fill="#364050"/>
<path d="M80.0793 11.223C80.077 12.3021 80.0491 13.3828 80.0886 14.4618C80.1119 15.069 79.7535 15.3016 78.9249 15.2686C78.2732 15.2439 77.6169 15.2406 76.9675 15.2686C76.1087 15.3049 75.8247 15.031 75.8317 14.4437C75.8597 12.3615 75.8201 10.2776 75.8527 8.19544C75.862 7.56518 75.7433 7.1263 74.6377 7.21045C73.9977 7.25994 73.7207 6.98606 73.7184 6.55048C73.7184 6.21555 73.7394 5.88062 73.7044 5.54734C73.6393 4.89232 73.9279 4.49799 74.9752 4.56399C75.7456 4.61349 75.8201 4.24556 75.8666 3.81988C76.2251 0.604208 79.7768 -0.263645 83.2307 0.38147C84.1384 0.551411 84.5666 0.866544 84.1081 1.54301C83.9987 1.7047 83.9312 1.88124 83.8637 2.05448C83.6054 2.72929 83.3727 3.32656 82.0088 2.91903C81.3827 2.73259 80.6333 2.89428 80.2609 3.4305C79.7535 4.15811 80.077 4.56069 81.2128 4.56399C83.6519 4.57059 83.4821 4.4122 83.5356 6.2733C83.5565 7.03226 83.1376 7.24674 82.1252 7.23189C79.9024 7.20055 80.0816 7.0603 80.077 8.67227C80.0793 9.52692 80.0816 10.375 80.0793 11.223Z" fill="#364050"/>
<path d="M3.3247 5.64793C3.62494 5.50604 3.76924 5.44004 3.90656 5.37075C5.95937 4.31976 8.17742 4.10362 10.4909 4.82958C12.6973 5.52254 13.4119 6.95136 13.5212 8.49238C13.6632 10.5201 13.5678 12.5561 13.5725 14.5888C13.5748 15.488 12.6135 15.2174 11.92 15.2669C11.1379 15.323 10.8493 15.1003 10.8447 14.5145C10.8261 12.5611 11.0448 10.6043 10.719 8.65572C10.4723 7.1807 9.57855 6.53558 7.67004 6.37719C5.93376 6.232 4.26266 6.97941 3.65985 8.17559C3.4015 8.69037 3.32237 9.22494 3.3247 9.76941C3.33168 11.3137 3.2828 12.858 3.34331 14.3991C3.37357 15.1712 2.83826 15.2867 1.93288 15.2801C1.07405 15.2735 0.592273 15.158 0.596928 14.4304C0.63184 10.0053 0.63184 5.58029 0.596928 1.15523C0.589946 0.397919 1.14155 0.343472 1.96546 0.341823C2.79869 0.340173 3.36426 0.416069 3.33866 1.16183C3.28979 2.6187 3.3247 4.07557 3.3247 5.64793Z" fill="#364050"/>
<path d="M67.3365 10.6406C65.9214 10.6406 64.5064 10.634 63.0913 10.6439C62.023 10.6505 61.8903 10.8122 62.3302 11.52C63.5614 13.4982 67.1573 14.14 69.5662 12.7789C70.1853 12.4291 70.5856 12.2014 71.221 12.7838C71.8262 13.3398 72.0636 13.7375 71.1373 14.2456C68.861 15.4946 66.373 15.7141 63.7453 15.0162C60.9803 14.2803 59.6187 12.7244 59.3045 10.7115C58.981 8.631 59.6257 6.7336 62.0835 5.39388C65.5421 3.50803 70.3622 4.45013 72.0775 7.28632C72.5407 8.05353 72.7362 8.86034 72.8479 9.68199C72.941 10.3469 72.6338 10.6884 71.5795 10.6538C70.1714 10.6043 68.7516 10.6406 67.3365 10.6406ZM66.11 9.03853V9.03688C67.1992 9.03688 68.2861 9.03028 69.3754 9.03853C69.9805 9.04348 70.1085 8.85869 69.9875 8.45611C69.6174 7.24343 67.944 6.29968 66.096 6.29308C64.2457 6.28648 62.5792 7.21043 62.1742 8.42806C62.0253 8.87684 62.1999 9.05008 62.8446 9.04183C63.9338 9.02863 65.0207 9.03853 66.11 9.03853Z" fill="#364050"/>
<path d="M30.7723 9.75961C30.77 13.8761 25.7357 16.4351 20.8946 14.9865C17.9364 14.1022 16.1908 11.7461 16.5912 9.18379C16.9798 6.70563 19.17 4.94517 22.4144 4.50795C26.2664 3.98823 29.7645 5.73548 30.5512 8.58487C30.6769 9.0386 30.7257 9.50222 30.7723 9.75961ZM27.9282 9.78106C27.9188 9.64577 27.9398 9.35868 27.8676 9.08315C27.5418 7.83417 26.6667 6.88547 24.8838 6.47464C23.2267 6.09351 21.779 6.40039 20.6176 7.27815C18.9395 8.54858 18.8697 11.0036 20.4058 12.3665C21.9396 13.7276 24.686 13.8514 26.4688 12.6569C27.586 11.9094 27.9305 10.9706 27.9282 9.78106Z" fill="#364050"/>
</svg>
