<svg width="108" height="108" viewBox="0 0 108 108" fill="none" xmlns="http://www.w3.org/2000/svg">
<g filter="url(#filter0_d_416_675)">
<circle cx="54" cy="46" r="32" fill="white"/>
<circle cx="54" cy="46" r="38" fill="white"/>
<rect x="38" y="30" width="32" height="32" rx="16" fill="white"/>
<path d="M61.4934 44.3335C60.92 44.3335 60.4667 43.8668 60.4667 43.3068C60.4667 42.8135 59.9734 41.7868 59.1467 40.8935C58.3334 40.0268 57.44 39.5201 56.6934 39.5201C56.12 39.5201 55.6667 39.0535 55.6667 38.4935C55.6667 37.9335 56.1334 37.4668 56.6934 37.4668C58.0267 37.4668 59.4267 38.1868 60.6534 39.4801C61.8 40.6935 62.5334 42.2001 62.5334 43.2935C62.5334 43.8668 62.0667 44.3335 61.4934 44.3335Z" fill="#292D32"/>
<path d="M66.3067 44.3334C65.7333 44.3334 65.28 43.8667 65.28 43.3067C65.28 38.5734 61.4267 34.7334 56.7067 34.7334C56.1333 34.7334 55.68 34.2667 55.68 33.7067C55.68 33.1467 56.1333 32.6667 56.6933 32.6667C62.56 32.6667 67.3333 37.4401 67.3333 43.3067C67.3333 43.8667 66.8667 44.3334 66.3067 44.3334Z" fill="#292D32"/>
<path d="M52.7334 49.9334L50.2667 52.4001C49.7467 52.9201 48.92 52.9201 48.3867 52.4134C48.24 52.2667 48.0934 52.1334 47.9467 51.9867C46.5734 50.6001 45.3334 49.1467 44.2267 47.6267C43.1334 46.1067 42.2534 44.5867 41.6134 43.0801C40.9867 41.5601 40.6667 40.1067 40.6667 38.7201C40.6667 37.8134 40.8267 36.9467 41.1467 36.1467C41.4667 35.3334 41.9734 34.5867 42.68 33.9201C43.5334 33.0801 44.4667 32.6667 45.4534 32.6667C45.8267 32.6667 46.2 32.7467 46.5334 32.9067C46.88 33.0667 47.1867 33.3067 47.4267 33.6534L50.52 38.0134C50.76 38.3467 50.9334 38.6534 51.0534 38.9467C51.1734 39.2267 51.24 39.5067 51.24 39.7601C51.24 40.0801 51.1467 40.4001 50.96 40.7067C50.7867 41.0134 50.5334 41.3334 50.2134 41.6534L49.2 42.7067C49.0534 42.8534 48.9867 43.0267 48.9867 43.2401C48.9867 43.3467 49 43.4401 49.0267 43.5467C49.0667 43.6534 49.1067 43.7334 49.1334 43.8134C49.3734 44.2534 49.7867 44.8267 50.3734 45.5201C50.9734 46.2134 51.6134 46.9201 52.3067 47.6267C52.44 47.7601 52.5867 47.8934 52.72 48.0267C53.2534 48.5467 53.2667 49.4001 52.7334 49.9334Z" fill="#292D32"/>
<path d="M67.2933 54.44C67.2933 54.8133 67.2267 55.2 67.0933 55.5733C67.0533 55.68 67.0133 55.7866 66.96 55.8933C66.7333 56.3733 66.44 56.8266 66.0533 57.2533C65.4 57.9733 64.68 58.4933 63.8667 58.8266C63.8533 58.8266 63.84 58.84 63.8267 58.84C63.04 59.16 62.1867 59.3333 61.2667 59.3333C59.9067 59.3333 58.4533 59.0133 56.92 58.36C55.3867 57.7066 53.8533 56.8266 52.3333 55.72C51.8133 55.3333 51.2933 54.9466 50.8 54.5333L55.16 50.1733C55.5333 50.4533 55.8667 50.6666 56.1467 50.8133C56.2133 50.84 56.2933 50.88 56.3867 50.92C56.4933 50.96 56.6 50.9733 56.72 50.9733C56.9467 50.9733 57.12 50.8933 57.2667 50.7466L58.28 49.7466C58.6133 49.4133 58.9333 49.16 59.24 49C59.5467 48.8133 59.8533 48.72 60.1867 48.72C60.44 48.72 60.7067 48.7733 61 48.8933C61.2933 49.0133 61.6 49.1866 61.9333 49.4133L66.3467 52.5466C66.6933 52.7866 66.9333 53.0666 67.08 53.4C67.2133 53.7333 67.2933 54.0666 67.2933 54.44Z" fill="#292D32"/>
</g>
<defs>
<filter id="filter0_d_416_675" x="0" y="0" width="108" height="108" filterUnits="userSpaceOnUse" color-interpolation-filters="sRGB">
<feFlood flood-opacity="0" result="BackgroundImageFix"/>
<feColorMatrix in="SourceAlpha" type="matrix" values="0 0 0 0 0 0 0 0 0 0 0 0 0 0 0 0 0 0 127 0" result="hardAlpha"/>
<feOffset dy="8"/>
<feGaussianBlur stdDeviation="8"/>
<feComposite in2="hardAlpha" operator="out"/>
<feColorMatrix type="matrix" values="0 0 0 0 0.133681 0 0 0 0 0.352026 0 0 0 0 0.729167 0 0 0 0.15 0"/>
<feBlend mode="normal" in2="BackgroundImageFix" result="effect1_dropShadow_416_675"/>
<feBlend mode="normal" in="SourceGraphic" in2="effect1_dropShadow_416_675" result="shape"/>
</filter>
</defs>
</svg>
