<svg width="41" height="32" viewBox="0 0 41 32" fill="none" xmlns="http://www.w3.org/2000/svg">
<path d="M18.2729 16.0205C19.3333 15.8862 20.4019 15.9533 21.4644 15.9808C24.1775 16.051 26.8843 16.1914 29.585 16.3807C33.0685 16.6264 36.5375 16.9622 39.9941 17.3773C40.4104 17.4277 40.4829 17.5818 40.4808 17.8458C40.4539 19.9474 39.816 21.9315 38.5071 23.8072C37.3328 25.4906 35.7091 26.8886 33.7085 28.0531C32.209 28.9261 30.459 29.184 28.5909 29.065C26.6752 28.9429 24.8837 28.4973 23.1482 27.9036C21.6777 27.3999 20.2922 26.791 18.9543 26.1164C18.7534 26.0141 18.6498 25.9088 18.6602 25.7165C18.7182 24.6314 17.9374 23.8759 16.7424 23.3799C15.5805 22.8976 14.284 22.687 12.9358 22.69C12.3994 22.6916 11.9065 22.7969 11.4446 22.9785C10.9931 23.1555 10.8357 23.4714 10.8171 23.8286C10.7943 24.2483 11.0076 24.6268 11.2706 24.9809C11.8754 25.7974 12.6769 26.501 13.729 27.0245C14.7521 27.5327 15.8642 27.7143 17.0655 27.374C17.3078 27.3053 17.5169 27.2061 17.693 27.0718C17.9436 26.8825 18.1797 26.8734 18.4717 27.0336C19.7599 27.7418 21.162 28.308 22.6055 28.8254C24.2334 29.4099 25.8902 29.9441 27.5782 30.4233C27.8122 30.4905 28.0545 30.5515 28.2761 30.637C28.7939 30.8369 29.001 31.1529 28.8601 31.4917C28.7172 31.829 28.2388 32.0457 27.69 31.9923C26.9403 31.919 26.1947 31.8229 25.445 31.7465C21.746 31.3696 18.0368 31.2246 14.311 31.4825C13.5136 31.5375 12.7183 31.6046 11.923 31.6657C11.4239 31.7038 11.0449 31.5375 10.8689 31.2002C10.6514 30.782 10.7425 30.5118 11.1837 30.2753C11.2561 30.2371 11.3348 30.2036 11.4032 30.1623C11.7118 29.9746 11.6828 29.8251 11.31 29.7136C10.2496 29.3977 9.20786 29.0543 8.24482 28.5949C3.75477 26.4521 1.11831 23.4135 0.204974 19.5506C-6.05548e-05 18.6883 -0.0187001 17.8123 0.0123658 16.9347C0.0247921 16.5837 0.341664 16.5684 0.673033 16.5425C2.36923 16.4082 4.06336 16.2662 5.76162 16.1487C7.31492 16.0403 8.87028 16.0281 10.4215 16.1884C12.7701 16.4295 14.7687 17.2415 16.6264 18.2747C18.1921 19.1462 19.5652 20.1748 20.9922 21.1608C21.2034 21.3073 21.2718 21.463 21.2676 21.6812C21.249 22.4367 21.8931 22.922 22.6118 23.3692C24.1153 24.3048 25.9503 24.7611 27.7273 25.3029C27.7811 25.3197 27.8391 25.3334 27.8971 25.3441C28.0151 25.3639 28.1435 25.3838 28.214 25.2876C28.3072 25.1594 28.1601 25.1121 28.0504 25.0602C27.3358 24.7275 26.6213 24.3948 25.9027 24.0667C25.1964 23.7446 24.4881 23.4287 23.7778 23.1128C23.5562 23.0136 23.3677 22.9022 23.5417 22.6961C23.7136 22.4947 23.9642 22.5221 24.2065 22.6214C24.9976 22.9434 25.7846 23.273 26.5778 23.5935C27.2136 23.8515 27.8536 24.1033 28.4977 24.3521C28.6468 24.4101 28.8374 24.5108 28.9616 24.3414C29.0652 24.1979 28.8746 24.1262 28.7462 24.0606C27.8163 23.5935 26.8843 23.1296 25.9524 22.6656C25.5837 22.4825 25.2151 22.2978 24.8464 22.1146C24.7719 22.078 24.6952 22.0429 24.629 22.0002C24.4364 21.875 24.2976 21.727 24.4778 21.5454C24.6476 21.3744 24.8775 21.434 25.0763 21.521C25.7266 21.8064 26.3728 22.0948 27.0169 22.3878C27.7853 22.7373 28.5474 23.0929 29.3116 23.444C29.4338 23.5004 29.5767 23.5935 29.7072 23.4791C29.8501 23.3539 29.7072 23.2593 29.5829 23.1769C28.4791 22.4504 27.369 21.7285 26.1305 21.1257C25.4056 20.7731 24.6103 20.5304 23.7674 20.3839C23.3159 20.3061 22.852 20.2893 22.4171 20.4496C22.1893 20.5335 21.9801 20.5137 21.7958 20.3977C20.4703 19.5598 19.0412 18.8074 17.9125 17.8077C17.6847 17.6047 17.4735 17.3956 17.3223 17.1545C16.9743 16.6035 17.1897 16.2433 17.9726 16.077C18.0699 16.0556 18.1714 16.0388 18.2729 16.0205Z" fill="#364050"/>
<path d="M26.2009 2.67995C26.8823 4.52361 26.0539 5.89414 24.3805 7.05253C23.579 7.60655 22.6718 8.06288 21.7606 8.51464C19.5031 9.6364 18.1031 11.1382 18.0513 13.2108C18.0492 13.3298 18.0658 13.4504 18.0844 13.5694C18.1155 13.7724 18.0389 13.9601 17.7945 14.0456C17.5294 14.1387 17.3492 13.9708 17.2042 13.8365C15.4563 12.2233 15.1829 10.7978 16.6554 8.97708C17.43 8.01862 18.451 7.18684 19.209 6.22075C19.4783 5.87735 19.6957 5.52175 19.8076 5.13256C19.9422 4.66097 19.6916 4.47019 19.0682 4.59839C18.364 4.74491 17.7344 5.0181 17.0945 5.27145C15.9575 5.72168 14.835 6.19175 13.5613 6.41305C13.1823 6.47868 12.7991 6.49394 12.4118 6.4802C11.5026 6.44815 10.9227 6.07576 10.6141 5.47749C10.0301 4.34657 10.2041 3.22175 10.7633 2.11372C11.0843 1.47882 11.6227 0.944649 12.2296 0.445579C12.3269 0.36469 12.4429 0.291432 12.5671 0.236489C12.8426 0.115918 13.0352 0.169336 13.0435 0.419634C13.0518 0.746242 13.0497 1.0759 13.0166 1.40251C12.9896 1.66502 13 1.92295 13.0393 2.18546C13.1615 3.02334 14.0272 3.40337 15.1166 3.12102C16.498 2.76084 17.6267 2.10151 18.8052 1.49561C19.9463 0.90802 21.0523 0.273118 22.4606 0.0472391C23.5023 -0.119118 24.3867 0.147969 25.0246 0.785924C25.3187 1.08048 25.5403 1.39641 25.7474 1.72149C25.971 2.07099 26.1326 2.4327 26.2009 2.67995Z" fill="#364050"/>
<path d="M12.7183 10.9428C12.8715 11.915 13.8304 12.6415 14.7562 13.3817C14.7873 13.4061 14.8225 13.426 14.8515 13.4504C14.9778 13.5649 15.2243 13.6702 15.1062 13.8304C14.9778 14.0044 14.7148 13.9327 14.5015 13.8884C12.9523 13.5664 11.4819 13.1146 10.1812 12.4019C9.19749 11.8616 8.3877 11.2343 8.16196 10.2911C7.97142 9.49752 8.46433 8.96945 9.19956 8.66573C10.0031 8.33455 11.0138 8.51769 11.6206 9.0366C12.1695 9.50515 12.3828 9.86686 12.7183 10.9428Z" fill="#364050"/>
<path d="M21.0377 14.3036C20.6919 14.3662 20.3502 14.4379 20.0022 14.4883C19.8282 14.5142 19.6315 14.5157 19.5197 14.3875C19.4016 14.2517 19.5321 14.1418 19.6315 14.0319C19.909 13.7267 20.3274 13.5298 20.6919 13.2917C21.4126 12.8186 22.1064 12.3348 22.5952 11.7075C22.8831 11.3382 23.2745 11.0192 23.728 10.7506C23.8999 10.6499 24.0926 10.5598 24.2914 10.4942C25.2151 10.192 26.1098 10.63 26.1077 11.3733C26.1056 11.9349 25.7515 12.3897 25.2379 12.7621C24.0698 13.6092 22.591 14.0213 21.0377 14.3036Z" fill="#364050"/>
</svg>
