<svg width="62" height="32" viewBox="0 0 62 32" fill="none" xmlns="http://www.w3.org/2000/svg">
<path d="M35.1514 10.6618C34.2181 10.67 33.2802 10.5875 32.4818 11.0115C31.765 11.391 31.7696 11.5082 32.4213 11.9355C35.461 13.9286 38.5239 15.9052 41.5263 17.9263C43.8351 19.4805 46.3907 20.812 48.8624 22.2243C50.5917 23.2126 52.1977 24.2834 52.9983 25.8145C53.0239 25.864 53.0611 25.9119 53.0798 25.9614C53.2683 26.4596 53.4615 26.9843 52.9308 27.4182C52.3676 27.8786 51.6088 27.7317 50.9152 27.5882C48.8764 27.1691 47.303 26.2501 46.0602 25.0836C41.5333 20.8367 36.2895 17.042 31.2041 13.1482C30.4267 12.5525 30.4034 12.5591 29.64 13.13C26.1791 15.722 22.6763 18.286 19.2806 20.9209C17.4093 22.3728 15.7312 23.9468 13.9484 25.4565C13.0732 26.1973 12.1818 26.9299 11.1671 27.5799C10.413 28.0617 9.57509 28.1821 8.61851 27.9198C7.64564 27.6509 7.22902 27.118 7.10567 26.4217C7.01723 25.9201 7.3454 25.5373 7.77597 25.1843C9.04909 24.1399 10.548 23.2671 12.0818 22.4372C15.9174 20.3616 19.3457 17.9709 22.8369 15.6247C24.6895 14.379 26.5701 13.1531 28.4344 11.9157C28.6229 11.7903 28.9511 11.683 28.8068 11.4537C28.6788 11.2475 28.3506 11.2673 28.0806 11.2805C27.785 11.2937 27.4895 11.3349 27.1939 11.3514C25.8207 11.4273 24.7594 10.9901 23.8261 10.3268C21.4753 8.65876 19.3201 6.86531 17.1882 5.05866C16.2828 4.2898 15.3891 3.51269 14.5093 2.72898C14.344 2.58214 13.9437 2.40065 14.2416 2.20266C14.5605 1.99147 14.7537 2.30826 14.9352 2.4386C17.144 4.03076 19.3387 5.63283 21.5382 7.22994C21.7989 7.41803 22.0665 7.60117 22.3435 7.77771C22.5017 7.8767 22.6926 8.04499 22.9114 7.89155C23.1092 7.75131 22.8462 7.64407 22.7415 7.54012C22.6111 7.41308 22.4598 7.29428 22.3086 7.17879C20.1161 5.50248 17.9167 3.83112 15.7335 2.14987C15.4868 1.95848 14.9282 1.71264 15.261 1.48C15.6986 1.17312 15.9593 1.64169 16.22 1.82318C18.6289 3.49619 21.0192 5.1824 23.4164 6.86531C23.5212 6.93955 23.6306 7.01215 23.7469 7.07815C23.847 7.13589 23.968 7.17384 24.0844 7.11114C24.238 7.02865 24.2031 6.9214 24.103 6.83396C23.9029 6.65577 23.7004 6.47758 23.4723 6.31589C21.2193 4.70558 18.9594 3.09856 16.7017 1.49155C16.5784 1.40411 16.4527 1.31996 16.334 1.23087C16.1618 1.10217 15.936 0.96193 16.199 0.78869C16.4201 0.643498 16.611 0.78704 16.7762 0.892634C17.6374 1.4503 18.4962 2.00797 19.3527 2.56894C21.0471 3.67768 22.7345 4.79137 24.4359 5.89681C24.6802 6.0552 25.0317 6.38683 25.2667 6.21029C25.5577 5.99086 25.0503 5.76152 24.8222 5.60148C22.4761 3.95322 20.1115 2.32311 17.7514 0.689695C17.6444 0.615449 17.5257 0.551103 17.4256 0.473557C17.2813 0.364663 17.002 0.260718 17.2068 0.0874779C17.4372 -0.107211 17.6537 0.067679 17.8375 0.174923C19.4295 1.09887 21.0378 2.01127 22.6041 2.95667C24.7198 4.23205 26.8052 5.52888 28.7649 6.92965C29.896 7.73811 30.3383 8.64556 30.059 9.751C29.9985 9.99189 29.896 10.2938 30.2824 10.4126C30.72 10.5463 30.9248 10.2328 31.1436 10.0364C31.4275 9.784 31.5858 9.48866 31.5928 9.15868C31.5974 8.94749 31.6253 8.73466 31.5974 8.52677C31.3856 6.90986 32.2794 5.61468 33.8899 4.52409C35.6239 3.34935 37.5138 2.33631 39.7342 1.66149C40.7978 1.33811 41.894 1.14672 43.0624 1.20777C44.1424 1.26551 44.7545 1.63509 44.9383 2.39075C45.199 3.46979 44.6684 4.44654 44.0306 5.38369C42.8972 7.05175 41.2959 8.46902 39.3176 9.68335C38.1026 10.4291 36.7108 10.7343 35.1514 10.6618Z" fill="#364050"/>
<path d="M11.2183 28.4378C14.9864 28.4378 18.7546 28.4164 22.5204 28.4461C24.8013 28.4642 27.0706 28.6738 29.3328 28.8718C32.696 29.1655 36.0685 29.1209 39.4363 29.0351C42.5318 28.9559 45.6227 28.7959 48.7112 28.6309C51.553 28.4791 54.3855 28.2448 57.2413 28.225C57.9884 28.2201 58.7308 28.2481 59.4477 28.4065C60.6999 28.6837 61.2631 29.3337 61.1188 30.322C61.0071 31.0827 60.2204 31.5892 58.9636 31.6403C57.0481 31.7179 55.1512 31.5331 53.2544 31.3879C47.1611 30.9243 41.0655 30.5431 34.928 30.6999C32.4842 30.7626 30.1265 31.1899 27.7572 31.5661C26.1559 31.8218 24.5197 31.9027 22.8858 31.9505C17.0928 32.1204 11.3417 31.8482 5.63708 31.1091C4.27086 30.9325 2.91396 30.718 1.64317 30.2956C1.35224 30.1983 1.06131 30.096 0.798311 29.9673C0.314202 29.7297 -0.137324 29.4459 0.0395625 28.9741C0.214121 28.5038 0.833223 28.5616 1.33362 28.5335C4.62231 28.3455 7.92031 28.3405 11.2183 28.4378Z" fill="#364050"/>
<path d="M29.9961 20.949C29.9915 22.1254 30.1288 22.0379 28.4926 22.033C26.6586 22.028 26.8285 22.1847 26.8262 20.8566C26.8238 19.7363 26.6795 19.7924 28.2878 19.7957C28.3134 19.7957 28.3367 19.7957 28.3623 19.7957C30.18 19.8006 29.9845 19.6901 29.9961 20.949Z" fill="#364050"/>
<path d="M32.3958 22.0346C30.7293 22.028 30.8457 22.1517 30.848 20.9159C30.8503 19.6917 30.6827 19.7956 32.4656 19.794C34.1902 19.7923 34.0063 19.7098 34.0087 20.9126C34.0087 22.1715 34.1483 22.0247 32.3958 22.0346Z" fill="#364050"/>
<path d="M32.4004 24.7965C30.7549 24.785 30.8434 24.9417 30.848 23.6928C30.8527 22.518 30.6618 22.551 32.4516 22.5543C34.011 22.5576 34.011 22.556 34.011 23.668C34.0087 24.7965 34.0087 24.7965 32.4004 24.7965Z" fill="#364050"/>
<path d="M28.3367 24.7967C26.7308 24.7736 26.8076 25.0244 26.8308 23.7457C26.8518 22.5709 26.4352 22.5561 28.495 22.5544C29.9962 22.5528 29.9985 22.5544 29.9938 23.6087C29.9892 24.9518 30.1614 24.7818 28.3367 24.7967Z" fill="#364050"/>
</svg>
