<svg width="200" height="32" viewBox="0 0 200 32" fill="none" xmlns="http://www.w3.org/2000/svg">
<g clip-path="url(#clip0_2603_333)">
<path d="M17.6449 31.9973C12.7807 31.996 7.91476 31.9946 3.05059 31.9987C2.27152 32 1.53989 31.9154 0.890364 31.5688C-0.353957 30.9037 -0.284626 29.7013 1.0345 29.1223C1.51982 28.9087 2.05076 28.8362 2.60724 28.8362C3.97562 28.8362 5.34401 28.8066 6.71058 28.8415C7.51519 28.8617 7.8436 28.6978 7.83265 28.0543C7.7615 23.3575 9.77942 19.139 13.6255 15.4458C18.8491 10.428 25.7932 7.60941 34.3995 7.06665C41.0006 6.65017 47.0963 7.77868 52.6392 10.3931C57.1585 12.5238 60.6214 15.4028 62.9623 18.9832C64.8361 21.8501 65.8833 24.8568 65.7283 28.0569C65.7009 28.6306 65.9709 28.8671 66.7792 28.8429C68.0235 28.8066 69.2715 28.8308 70.5176 28.8348C70.8515 28.8362 71.1909 28.8321 71.5175 28.8724C72.5811 29.0041 73.466 29.661 73.5117 30.3274C73.5573 30.9844 72.8329 31.6292 71.7857 31.8724C71.3149 31.9812 70.8333 32.0014 70.3443 32.0014C60.6141 31.9987 50.8858 32 41.1557 31.9973C39.0994 31.9973 38.3003 31.3995 38.2985 29.8693C38.2966 28.5701 38.3879 27.2683 38.2729 25.9746C38.1343 24.4215 39.0812 23.4059 40.8601 22.7301C42.0497 22.2787 42.7722 21.5734 43.1115 20.6424C43.3359 20.0257 43.2849 19.3943 43.1772 18.7736C42.7776 16.444 42.3544 14.1172 41.9329 11.7903C41.8855 11.5243 41.8234 11.2569 41.7176 11.003C41.6063 10.7383 41.3162 10.6134 40.9404 10.6349C40.559 10.6564 40.3164 10.8189 40.2616 11.093C40.2178 11.3133 40.216 11.539 40.216 11.7621C40.2124 13.7101 40.2142 15.6581 40.2124 17.6048C40.2124 17.8063 40.2215 18.0092 40.1978 18.2093C40.1266 18.8018 39.6468 19.1336 38.9024 19.1041C38.1197 19.0718 37.762 18.736 37.762 18.1811C37.7566 16.1216 37.7584 14.0621 37.7547 12.0025C37.7547 11.7782 37.7657 11.5538 37.7365 11.3308C37.6818 10.9237 37.3807 10.651 36.8115 10.6376C36.1838 10.6228 35.8573 10.9049 35.8354 11.3496C35.8043 11.9528 35.8135 12.5587 35.8116 13.1619C35.808 14.6398 35.8135 16.1176 35.8062 17.5954C35.8043 17.8627 35.7824 18.1328 35.7222 18.3961C35.6073 18.8945 35.1658 19.1269 34.4943 19.1028C33.8339 19.0786 33.3814 18.8408 33.3485 18.3276C33.3175 17.8372 33.3577 17.3455 33.3577 16.8538C33.3613 15.1973 33.3595 13.5408 33.3595 11.883C33.3595 11.7043 33.3686 11.5243 33.3467 11.3456C33.2993 10.9506 33.0895 10.6362 32.4764 10.6322C31.8944 10.6282 31.7211 10.9345 31.659 11.2999C31.4127 12.7199 31.1664 14.14 30.9146 15.56C30.7066 16.7356 30.5023 17.9124 30.2833 19.0866C30.037 20.4126 30.7267 22.0866 32.6771 22.7489C34.3976 23.3333 35.3519 24.3732 35.2752 25.8631C35.2077 27.1823 35.2643 28.5043 35.2588 29.8249C35.2515 31.3646 34.4013 31.996 32.3268 31.9973C27.4353 32 22.5401 31.9987 17.6449 31.9973Z" fill="#364050"/>
<path d="M134.253 20.2379C135.593 20.9661 136.094 22.0032 136.644 23.0203C136.946 23.5832 137.306 24.1259 137.797 24.6163C138.213 25.0314 138.733 25.3297 139.457 25.3498C140.347 25.374 140.689 25.7421 140.698 26.3467C140.7 26.5039 140.707 26.6597 140.701 26.8169C140.674 27.7291 140.265 28.0112 139.008 27.9508C136.633 27.8366 134.892 26.9835 133.721 25.468C133.162 24.7453 132.788 23.9634 132.354 23.2003C131.659 21.9777 130.544 21.1582 128.654 21.0225C127.563 20.9446 127.421 21.0037 127.417 21.799C127.412 23.4327 127.421 25.0663 127.412 26.7C127.406 27.6162 127.143 27.8097 125.925 27.8231C122.715 27.8594 123.149 27.7788 123.144 25.7918C123.133 22.0543 123.118 18.3168 123.16 14.5806C123.168 13.878 122.982 13.4292 121.951 13.2936C121.04 13.174 120.75 12.7024 120.803 12.0562C120.865 11.2999 121.068 11.1454 122.122 11.1064C125.218 10.9935 128.315 10.9277 131.407 11.1198C132.653 11.1978 133.863 11.3939 135.016 11.7741C137.14 12.4754 138.236 13.6885 138.39 15.3786C138.563 17.2796 137.693 18.8018 135.388 19.7906C135.053 19.9343 134.704 20.0606 134.253 20.2379ZM127.417 15.9859C127.417 16.6348 127.413 17.285 127.419 17.9339C127.421 18.1811 127.408 18.4861 127.857 18.5062C129.592 18.5814 131.345 18.6688 132.83 17.7982C134.014 17.105 134.117 16.1457 133.848 15.169C133.611 14.3079 132.706 13.8968 131.586 13.71C130.415 13.5152 129.229 13.5663 128.046 13.5811C127.579 13.5864 127.415 13.7893 127.419 14.1064C127.422 14.7324 127.419 15.3598 127.417 15.9859Z" fill="#364050"/>
<path d="M182.435 20.5483C182.435 18.5573 182.393 16.5649 182.457 14.5752C182.481 13.8605 182.244 13.4346 181.237 13.2895C180.56 13.1915 180.118 12.9053 180.095 12.3222C180.053 11.3267 180.219 11.1454 181.578 11.1037C185.035 10.9989 188.496 10.8538 191.939 11.2501C192.446 11.3079 192.948 11.4127 193.437 11.5323C195.92 12.1368 197.458 13.3325 197.666 15.3114C197.885 17.3871 196.853 18.9858 194.26 19.9424C193.756 20.1291 193.479 20.246 194.059 20.6114C194.765 21.0561 195.181 21.6553 195.513 22.2921C195.926 23.0847 196.353 23.876 197.024 24.5787C197.449 25.022 197.995 25.327 198.75 25.3485C199.641 25.3753 199.976 25.7502 199.989 26.3507C199.995 26.5522 200.004 26.7537 199.987 26.9539C199.927 27.6969 199.577 27.9629 198.557 27.9467C196.223 27.9105 194.422 27.1662 193.185 25.6978C192.492 24.8742 192.058 23.9647 191.547 23.0807C190.845 21.8676 189.679 21.1273 187.843 21.0131C186.858 20.9513 186.714 21.0198 186.71 21.7386C186.703 23.3937 186.714 25.0502 186.705 26.7054C186.699 27.6109 186.424 27.8057 185.203 27.8218C181.943 27.8634 182.454 27.7224 182.437 25.8496C182.424 24.0843 182.435 22.3163 182.435 20.5483ZM186.712 16.0665C186.712 16.6925 186.708 17.3186 186.714 17.9446C186.716 18.1932 186.714 18.4914 187.163 18.5102C188.834 18.5788 190.527 18.6661 191.979 17.8707C193.171 17.2192 193.413 16.2949 193.164 15.2886C192.934 14.3603 192.049 13.9062 190.85 13.7087C189.71 13.5206 188.557 13.5717 187.405 13.5743C186.913 13.5757 186.701 13.7638 186.707 14.1225C186.721 14.77 186.714 15.4176 186.712 16.0665Z" fill="#364050"/>
<path d="M99.4545 19.2425C99.4198 18.1744 99.6169 17.0647 100 15.9792C101.372 12.0818 105.315 10.4912 110.246 10.8082C115.288 11.132 118.001 13.0948 118.889 16.7772C119.435 19.0369 119.351 21.2846 118.395 23.4784C117.136 26.3669 114.352 27.9132 110.234 28.0919C109.044 28.1429 107.862 28.0946 106.698 27.9078C102.943 27.3033 100.889 25.4708 99.9909 22.8255C99.5986 21.6701 99.4326 20.4919 99.4545 19.2425ZM114.766 19.2452C114.684 17.9729 114.616 16.5824 113.762 15.3021C112.868 13.96 111.356 13.346 109.354 13.3326C107.355 13.3192 105.844 13.9049 104.913 15.2484C104.291 16.1471 104.076 17.1131 103.977 18.0965C103.788 20.0056 103.844 21.8985 104.988 23.6786C105.568 24.5814 106.493 25.2343 107.833 25.4077C110.945 25.8093 113.133 25.2061 114.145 22.808C114.62 21.6889 114.728 20.5255 114.766 19.2452Z" fill="#364050"/>
<path d="M143.794 20.4542C143.794 18.4834 143.746 16.5125 143.818 14.543C143.845 13.7933 143.606 13.35 142.537 13.2425C141.94 13.1834 141.568 12.9348 141.475 12.4566C141.276 11.4275 141.626 11.1091 143.039 11.1064C144.316 11.105 145.593 11.1212 146.87 11.1024C147.731 11.0889 148.074 11.3818 148.069 11.9971C148.054 13.7665 148.092 15.5358 148.05 17.3038C148.036 17.899 148.377 18.0373 149.09 18.0051C149.849 17.9702 150.421 17.7512 150.837 17.2796C151.355 16.6898 151.639 16.0275 151.984 15.3826C152.307 14.7794 152.621 14.1735 152.971 13.5784C154.305 11.3106 156.98 10.8982 159.742 10.9976C159.861 11.0016 160.001 11.0137 160.089 11.0634C160.968 11.5538 160.559 12.2537 160.578 12.8704C160.592 13.3164 160.167 13.5811 159.569 13.5663C157.846 13.5206 157.003 14.281 156.399 15.3276C155.865 16.2532 155.493 17.2286 154.803 18.1072C154.546 18.435 153.865 18.6634 153.967 19.0019C154.062 19.3163 154.655 19.538 154.991 19.8241C156.007 20.6947 156.454 21.7735 156.985 22.8214C157.241 23.3252 157.465 23.8357 157.861 24.2938C158.416 24.9374 159.158 25.3646 160.24 25.3525C161.043 25.3444 161.413 25.6467 161.457 26.2029C161.481 26.4918 161.483 26.7833 161.466 27.0735C161.435 27.6391 161.017 27.9427 160.255 27.9467C157.728 27.9615 155.586 27.4013 154.232 25.7045C153.659 24.9871 153.261 24.2119 152.896 23.4273C152.621 22.8348 152.349 22.2397 151.887 21.705C151.231 20.9446 150.309 20.5738 149.072 20.559C148.344 20.5496 148.04 20.696 148.052 21.2751C148.092 23.0888 148.069 24.9024 148.065 26.7161C148.063 27.6404 147.835 27.8057 146.582 27.8218C143.792 27.8581 143.792 27.8581 143.792 25.8267C143.794 24.0372 143.794 22.2464 143.794 20.4542Z" fill="#364050"/>
<path d="M164.57 20.469C164.57 18.4109 164.546 16.3513 164.586 14.2931C164.597 13.7531 164.356 13.4897 163.657 13.3272C162.419 13.041 162.034 12.4311 162.402 11.5296C162.575 11.1064 163.037 11.1078 163.504 11.1078C166.117 11.1078 168.731 11.1064 171.344 11.1064C173.411 11.1064 175.477 11.1226 177.542 11.0997C178.392 11.0903 178.779 11.3684 178.817 11.9649C178.83 12.1664 178.841 12.3679 178.83 12.5681C178.781 13.4508 178.504 13.6751 177.279 13.6859C174.849 13.706 172.417 13.7154 169.987 13.6832C169.122 13.6711 168.784 13.8699 168.837 14.5242C168.901 15.3276 168.877 16.135 168.845 16.9398C168.826 17.4073 169.071 17.5698 169.698 17.5631C171.399 17.543 173.101 17.551 174.803 17.5591C176.008 17.5645 176.27 17.7861 176.281 18.7669C176.294 19.8497 176.006 20.1453 174.822 20.16C173.15 20.1802 171.479 20.1829 169.808 20.16C169.115 20.1506 168.824 20.3092 168.843 20.8492C168.883 22.0785 168.883 23.3105 168.841 24.5411C168.823 25.0825 169.107 25.2303 169.802 25.2236C172.293 25.2007 174.785 25.2115 177.277 25.2169C178.514 25.2195 178.704 25.3646 178.717 26.2674C178.737 27.7762 178.675 27.8245 176.655 27.8245C173.161 27.8245 169.666 27.8272 166.172 27.8218C164.829 27.8205 164.573 27.6297 164.57 26.6463C164.566 24.5854 164.57 22.5272 164.57 20.469Z" fill="#364050"/>
<path d="M91.454 11.1078C93.5813 11.1078 95.7087 11.1037 97.8361 11.1091C98.9545 11.1131 99.1516 11.2676 99.1698 12.0966C99.2027 13.6133 99.095 13.6953 97.0552 13.6966C95.1103 13.698 93.1654 13.7128 91.2204 13.6872C90.4742 13.6778 90.1896 13.8632 90.2169 14.4248C90.2644 15.3639 90.2516 16.3043 90.2206 17.2434C90.206 17.7122 90.4687 17.8815 91.0836 17.8762C92.6034 17.8627 94.1232 17.8614 95.6412 17.8775C96.9312 17.8909 97.1574 18.0777 97.1629 19.0329C97.1702 20.461 97.1702 20.461 95.2708 20.461C93.9043 20.461 92.5359 20.4838 91.1693 20.4529C90.4632 20.4368 90.206 20.6047 90.2169 21.1394C90.2516 23.0189 90.2334 24.8984 90.2279 26.778C90.2261 27.6176 89.9816 27.795 88.8467 27.8232C85.9567 27.8944 85.9567 27.8944 85.9567 25.7798C85.9567 21.9764 85.9421 18.1717 85.9731 14.3684C85.9786 13.784 85.745 13.4763 84.9605 13.3057C83.7946 13.0531 83.4151 12.4029 83.7892 11.5323C83.968 11.1145 84.4223 11.1078 84.8912 11.1078C87.0788 11.1078 89.2664 11.1078 91.454 11.1078Z" fill="#364050"/>
<path d="M36.7786 5.73526C34.7498 5.75004 32.9544 4.44419 32.907 2.91801C32.8577 1.32869 34.6366 -0.00268287 36.8024 4.05991e-06C39.0027 0.00269099 40.7105 1.26689 40.7287 2.90726C40.747 4.41866 38.9316 5.71914 36.7786 5.73526Z" fill="#364050"/>
<path d="M111.951 19.3594C111.951 20.4248 110.845 21.255 109.444 21.2443C107.999 21.2335 106.915 20.4355 106.897 19.3701C106.878 18.3088 107.991 17.4463 109.374 17.449C110.876 17.453 111.951 18.2483 111.951 19.3594Z" fill="#364050"/>
</g>
<defs>
<clipPath id="clip0_2603_333">
<rect width="200" height="32" fill="white"/>
</clipPath>
</defs>
</svg>
