<svg width="18" height="17" viewBox="0 0 18 17" fill="none" xmlns="http://www.w3.org/2000/svg">
<path d="M8.23886 0.766385C8.53249 0.107646 9.46751 0.107647 9.76114 0.766387L11.5669 4.81746C11.688 5.08915 11.9448 5.27568 12.2406 5.30691L16.6514 5.77244C17.3686 5.84814 17.6576 6.73739 17.1218 7.22022L13.827 10.1895C13.606 10.3886 13.508 10.6904 13.5697 10.9814L14.49 15.3202C14.6396 16.0257 13.8832 16.5753 13.2584 16.215L9.41635 13.999C9.15868 13.8504 8.84132 13.8504 8.58365 13.999L4.74159 16.215C4.11684 16.5753 3.3604 16.0257 3.51004 15.3202L4.43031 10.9814C4.49203 10.6904 4.39396 10.3886 4.17299 10.1895L0.878204 7.22022C0.342443 6.73739 0.631379 5.84814 1.34862 5.77244L5.75942 5.30691C6.05524 5.27568 6.31199 5.08915 6.4331 4.81746L8.23886 0.766385Z" fill="#121D2F"/>
</svg>
