<svg width="32" height="32" viewBox="0 0 32 32" fill="none" xmlns="http://www.w3.org/2000/svg">
<path d="M16 2.66667C8.64002 2.66667 2.66669 8.64001 2.66669 16C2.66669 23.36 8.64002 29.3333 16 29.3333C23.36 29.3333 29.3334 23.36 29.3334 16C29.3334 8.64001 23.36 2.66667 16 2.66667ZM16 11.6667C15.4534 11.6667 15 11.2133 15 10.6667C15 10.12 15.4534 9.66667 16 9.66667C19.4934 9.66667 22.3334 12.5067 22.3334 16C22.3334 19.4933 19.4934 22.3333 16 22.3333C15.4534 22.3333 15 21.88 15 21.3333C15 20.7867 15.4534 20.3333 16 20.3333C18.3867 20.3333 20.3334 18.3867 20.3334 16C20.3334 13.6133 18.3867 11.6667 16 11.6667ZM16 26.3333C10.3067 26.3333 5.66669 21.6933 5.66669 16C5.66669 15.4533 6.12002 15 6.66669 15C7.21335 15 7.66669 15.4533 7.66669 16C7.66669 20.6 11.4 24.3333 16 24.3333C20.6 24.3333 24.3334 20.6 24.3334 16C24.3334 11.4 20.6 7.66667 16 7.66667C15.4534 7.66667 15 7.21334 15 6.66667C15 6.12001 15.4534 5.66667 16 5.66667C21.6934 5.66667 26.3334 10.3067 26.3334 16C26.3334 21.6933 21.6934 26.3333 16 26.3333Z" fill="url(#paint0_linear_2603_142)"/>
<defs>
<linearGradient id="paint0_linear_2603_142" x1="28.8525" y1="2.66667" x2="-2.87121" y2="14.5525" gradientUnits="userSpaceOnUse">
<stop stop-color="#2878FF"/>
<stop offset="1" stop-color="#2C65C8"/>
</linearGradient>
</defs>
</svg>
