<svg width="20" height="20" viewBox="0 0 20 20" fill="none" xmlns="http://www.w3.org/2000/svg">
<path d="M16.6333 7.4665C16.075 6.84983 15.2333 6.4915 14.0667 6.3665V5.73317C14.0667 4.5915 13.5833 3.4915 12.7333 2.72484C11.875 1.9415 10.7583 1.57484 9.6 1.68317C7.60833 1.87484 5.93333 3.79984 5.93333 5.88317V6.3665C4.76666 6.4915 3.925 6.84983 3.36666 7.4665C2.55833 8.3665 2.58333 9.5665 2.675 10.3998L3.25833 15.0415C3.43333 16.6665 4.09166 18.3332 7.675 18.3332H12.325C15.9083 18.3332 16.5667 16.6665 16.7417 15.0498L17.325 10.3915C17.4167 9.5665 17.4333 8.3665 16.6333 7.4665ZM9.71666 2.8415C10.55 2.7665 11.3417 3.02484 11.9583 3.58317C12.5667 4.13317 12.9083 4.9165 12.9083 5.73317V6.3165H7.09166V5.88317C7.09166 4.39984 8.31666 2.97484 9.71666 2.8415ZM7.01666 10.9582H7.00833C6.55 10.9582 6.175 10.5832 6.175 10.1248C6.175 9.6665 6.55 9.2915 7.00833 9.2915C7.475 9.2915 7.85 9.6665 7.85 10.1248C7.85 10.5832 7.475 10.9582 7.01666 10.9582ZM12.85 10.9582H12.8417C12.3833 10.9582 12.0083 10.5832 12.0083 10.1248C12.0083 9.6665 12.3833 9.2915 12.8417 9.2915C13.3083 9.2915 13.6833 9.6665 13.6833 10.1248C13.6833 10.5832 13.3083 10.9582 12.85 10.9582Z" fill="url(#paint0_linear_416_697)"/>
<defs>
<linearGradient id="paint0_linear_416_697" x1="17.1025" y1="1.66455" x2="-0.91424" y2="7.63295" gradientUnits="userSpaceOnUse">
<stop stop-color="#2878FF"/>
<stop offset="1" stop-color="#2C65C8"/>
</linearGradient>
</defs>
</svg>
