<svg width="32" height="32" viewBox="0 0 32 32" fill="none" xmlns="http://www.w3.org/2000/svg">
<path d="M29.3334 3.66666H2.66669C2.12002 3.66666 1.66669 3.21332 1.66669 2.66666C1.66669 2.11999 2.12002 1.66666 2.66669 1.66666H29.3334C29.88 1.66666 30.3334 2.11999 30.3334 2.66666C30.3334 3.21332 29.88 3.66666 29.3334 3.66666Z" fill="url(#paint0_linear_2603_243)"/>
<path d="M22.2266 29.7867C22.0533 30.1333 21.6933 30.3333 21.3333 30.3333C21.1866 30.3333 21.0266 30.2933 20.8933 30.2267L16 27.7867L11.1066 30.2267C10.9733 30.2933 10.8133 30.3333 10.6666 30.3333C10.3066 30.3333 9.94664 30.1333 9.77331 29.7867C9.51998 29.28 9.71998 28.68 10.2266 28.44L15 26.0533V22.6667H17V26.0533L21.7733 28.44C22.28 28.68 22.48 29.28 22.2266 29.7867Z" fill="url(#paint1_linear_2603_243)"/>
<path d="M4 2.66666V18.8C4 21.3333 5.33333 22.6667 7.86667 22.6667H24.1333C26.6667 22.6667 28 21.3333 28 18.8V2.66666H4ZM22.64 11.44L18.44 14.9467C18.0533 15.2667 17.56 15.4 17.0933 15.32C16.6133 15.24 16.2 14.9467 15.9467 14.52L14.5467 12.1867L10.64 15.44C10.4533 15.6 10.2267 15.6667 10 15.6667C9.72 15.6667 9.42667 15.5467 9.22667 15.3067C8.86667 14.88 8.93333 14.2533 9.36 13.8933L13.56 10.3867C13.9467 10.0667 14.44 9.93332 14.9067 10.0133C15.3867 10.0933 15.8 10.3867 16.0533 10.8133L17.4533 13.1467L21.36 9.89332C21.7867 9.53332 22.4133 9.59999 22.7733 10.0267C23.12 10.4533 23.0667 11.08 22.64 11.44Z" fill="url(#paint2_linear_2603_243)"/>
<defs>
<linearGradient id="paint0_linear_2603_243" x1="29.8164" y1="1.66666" x2="28.5131" y2="8.66576" gradientUnits="userSpaceOnUse">
<stop stop-color="#2878FF"/>
<stop offset="1" stop-color="#2C65C8"/>
</linearGradient>
<linearGradient id="paint1_linear_2603_243" x1="22.1077" y1="22.6667" x2="9.6816" y2="30.3622" gradientUnits="userSpaceOnUse">
<stop stop-color="#2878FF"/>
<stop offset="1" stop-color="#2C65C8"/>
</linearGradient>
<linearGradient id="paint2_linear_2603_243" x1="27.5672" y1="2.66666" x2="0.482846" y2="14.8438" gradientUnits="userSpaceOnUse">
<stop stop-color="#2878FF"/>
<stop offset="1" stop-color="#2C65C8"/>
</linearGradient>
</defs>
</svg>
