<svg width="20" height="20" viewBox="0 0 20 20" fill="none" xmlns="http://www.w3.org/2000/svg">
<path d="M7.5 18.3334H12.5C16.6667 18.3334 18.3333 16.6667 18.3333 12.5001V7.50008C18.3333 3.33341 16.6667 1.66675 12.5 1.66675H7.5C3.33334 1.66675 1.66667 3.33341 1.66667 7.50008V12.5001C1.66667 16.6667 3.33334 18.3334 7.5 18.3334Z" stroke="white" stroke-linecap="round" stroke-linejoin="round"/>
<path d="M9.99999 12.9166C11.6108 12.9166 12.9167 11.6107 12.9167 9.99992C12.9167 8.38909 11.6108 7.08325 9.99999 7.08325C8.38916 7.08325 7.08333 8.38909 7.08333 9.99992C7.08333 11.6107 8.38916 12.9166 9.99999 12.9166Z" stroke="white" stroke-linecap="round" stroke-linejoin="round"/>
<path d="M14.6968 5.83341H14.7064" stroke="white" stroke-linecap="round" stroke-linejoin="round"/>
</svg>
