<svg width="32" height="33" viewBox="0 0 32 33" fill="none" xmlns="http://www.w3.org/2000/svg">
<path d="M23.7467 7.82008V8.80675L19.0267 6.07341C17.24 5.04675 14.7467 5.04675 12.9733 6.07341L8.25333 8.82008V7.82008C8.25333 4.82008 9.89333 3.16675 12.8933 3.16675H19.1067C22.1067 3.16675 23.7467 4.82008 23.7467 7.82008Z" fill="url(#paint0_linear_2603_28)"/>
<path d="M23.7867 11.1267L23.6 11.0334L21.7867 9.9934L18.0267 7.82007C16.88 7.1534 15.12 7.1534 13.9733 7.82007L10.2133 9.98007L8.4 11.0467L8.16 11.1667C5.82667 12.7401 5.66667 13.0334 5.66667 15.5534V21.5801C5.66667 24.1001 5.82667 24.3934 8.21333 26.0067L13.9733 29.3267C14.5467 29.6734 15.2667 29.8201 16 29.8201C16.72 29.8201 17.4533 29.6601 18.0267 29.3267L23.84 25.9667C26.1867 24.3934 26.3333 24.1134 26.3333 21.5801V15.5534C26.3333 13.0334 26.1733 12.7401 23.7867 11.1267ZM19.72 18.5001L18.9067 19.5001C18.7733 19.6467 18.68 19.9267 18.6933 20.1267L18.7733 21.4067C18.8267 22.1934 18.2667 22.5934 17.5333 22.3134L16.3467 21.8334C16.16 21.7667 15.8533 21.7667 15.6667 21.8334L14.48 22.3001C13.7467 22.5934 13.1867 22.1801 13.24 21.3934L13.32 20.1134C13.3333 19.9134 13.24 19.6334 13.1067 19.4867L12.28 18.5001C11.7733 17.9001 12 17.2334 12.76 17.0334L14 16.7134C14.2 16.6601 14.4267 16.4734 14.5333 16.3134L15.2267 15.2467C15.6533 14.5801 16.3333 14.5801 16.7733 15.2467L17.4667 16.3134C17.5733 16.4867 17.8133 16.6601 18 16.7134L19.24 17.0334C20 17.2334 20.2267 17.9001 19.72 18.5001Z" fill="url(#paint1_linear_2603_28)"/>
<defs>
<linearGradient id="paint0_linear_2603_28" x1="23.4673" y1="3.16675" x2="13.2358" y2="13.6725" gradientUnits="userSpaceOnUse">
<stop stop-color="#2878FF"/>
<stop offset="1" stop-color="#2C65C8"/>
</linearGradient>
<linearGradient id="paint1_linear_2603_28" x1="25.9607" y1="7.32007" x2="0.89241" y2="15.947" gradientUnits="userSpaceOnUse">
<stop stop-color="#2878FF"/>
<stop offset="1" stop-color="#2C65C8"/>
</linearGradient>
</defs>
</svg>
