<svg width="32" height="33" viewBox="0 0 32 33" fill="none" xmlns="http://www.w3.org/2000/svg">
<path d="M17 21.7268H17.8667C18.7333 21.7268 19.4533 20.9534 19.4533 20.0201C19.4533 18.8601 19.04 18.6334 18.36 18.3934L17.0133 17.9268V21.7268H17Z" fill="url(#paint0_linear_2603_75)"/>
<path d="M15.96 3.03323C8.6 3.05989 2.64 9.04656 2.66667 16.4066C2.69334 23.7666 8.68 29.7266 16.04 29.6999C23.4 29.6732 29.36 23.6866 29.3333 16.3266C29.3067 8.96656 23.32 3.01989 15.96 3.03323ZM19.0133 16.4999C20.0533 16.8599 21.4533 17.6332 21.4533 20.0199C21.4533 22.0732 19.84 23.7266 17.8667 23.7266H17V24.4999C17 25.0466 16.5467 25.4999 16 25.4999C15.4533 25.4999 15 25.0466 15 24.4999V23.7266H14.52C12.3333 23.7266 10.56 21.8866 10.56 19.6199C10.56 19.0732 11.0133 18.6199 11.56 18.6199C12.1067 18.6199 12.56 19.0732 12.56 19.6199C12.56 20.7799 13.44 21.7266 14.52 21.7266H15V17.2199L12.9867 16.4999C11.9467 16.1399 10.5467 15.3666 10.5467 12.9799C10.5467 10.9266 12.16 9.27323 14.1333 9.27323H15V8.49989C15 7.95323 15.4533 7.49989 16 7.49989C16.5467 7.49989 17 7.95323 17 8.49989V9.27323H17.48C19.6667 9.27323 21.44 11.1132 21.44 13.3799C21.44 13.9266 20.9867 14.3799 20.44 14.3799C19.8933 14.3799 19.44 13.9266 19.44 13.3799C19.44 12.2199 18.56 11.2732 17.48 11.2732H17V15.7799L19.0133 16.4999Z" fill="url(#paint1_linear_2603_75)"/>
<path d="M12.56 12.9934C12.56 14.1534 12.9733 14.3801 13.6533 14.6201L15 15.0868V11.2734H14.1333C13.2667 11.2734 12.56 12.0468 12.56 12.9934Z" fill="url(#paint2_linear_2603_75)"/>
<defs>
<linearGradient id="paint0_linear_2603_75" x1="19.4091" y1="17.9268" x2="16.2648" y2="18.6873" gradientUnits="userSpaceOnUse">
<stop stop-color="#2878FF"/>
<stop offset="1" stop-color="#2C65C8"/>
</linearGradient>
<linearGradient id="paint1_linear_2603_75" x1="28.8525" y1="3.0332" x2="-2.87134" y2="14.9192" gradientUnits="userSpaceOnUse">
<stop stop-color="#2878FF"/>
<stop offset="1" stop-color="#2C65C8"/>
</linearGradient>
<linearGradient id="paint2_linear_2603_75" x1="14.956" y1="11.2734" x2="11.8257" y2="12.0239" gradientUnits="userSpaceOnUse">
<stop stop-color="#2878FF"/>
<stop offset="1" stop-color="#2C65C8"/>
</linearGradient>
</defs>
</svg>
