<svg width="32" height="33" viewBox="0 0 32 33" fill="none" xmlns="http://www.w3.org/2000/svg">
<path d="M28.6667 21.1667C29.04 21.1667 29.3333 21.4601 29.3333 21.8334V23.1667C29.3333 25.3801 27.5467 27.1667 25.3333 27.1667C25.3333 24.9667 23.5333 23.1667 21.3333 23.1667C19.1333 23.1667 17.3333 24.9667 17.3333 27.1667H14.6667C14.6667 24.9667 12.8667 23.1667 10.6667 23.1667C8.46666 23.1667 6.66666 24.9667 6.66666 27.1667C4.45332 27.1667 2.66666 25.3801 2.66666 23.1667V20.5001C2.66666 19.7667 3.26666 19.1667 3.99999 19.1667H16.6667C18.5067 19.1667 20 17.6734 20 15.8334V8.50008C20 7.76675 20.6 7.16675 21.3333 7.16675H22.4533C23.4133 7.16675 24.2933 7.68675 24.7733 8.51342L25.6267 10.0067C25.7467 10.2201 25.5867 10.5001 25.3333 10.5001C23.4933 10.5001 22 11.9934 22 13.8334V17.8334C22 19.6734 23.4933 21.1667 25.3333 21.1667H28.6667Z" fill="url(#paint0_linear_2603_54)"/>
<path d="M10.6667 29.8333C12.1394 29.8333 13.3333 28.6394 13.3333 27.1667C13.3333 25.6939 12.1394 24.5 10.6667 24.5C9.19391 24.5 8 25.6939 8 27.1667C8 28.6394 9.19391 29.8333 10.6667 29.8333Z" fill="url(#paint1_linear_2603_54)"/>
<path d="M21.3333 29.8333C22.8061 29.8333 24 28.6394 24 27.1667C24 25.6939 22.8061 24.5 21.3333 24.5C19.8606 24.5 18.6667 25.6939 18.6667 27.1667C18.6667 28.6394 19.8606 29.8333 21.3333 29.8333Z" fill="url(#paint2_linear_2603_54)"/>
<path d="M29.3333 17.2067V19.1667H25.3333C24.6 19.1667 24 18.5667 24 17.8333V13.8333C24 13.1 24.6 12.5 25.3333 12.5H27.0533L28.9867 15.8867C29.2133 16.2867 29.3333 16.74 29.3333 17.2067Z" fill="url(#paint3_linear_2603_54)"/>
<path d="M17.44 3.16675H7.58663C5.19996 3.16675 3.19996 4.87341 2.75996 7.14008H8.58663C9.09329 7.14008 9.49329 7.55341 9.49329 8.06008C9.49329 8.56675 9.09329 8.96675 8.58663 8.96675H2.66663V10.8067H6.13329C6.63996 10.8067 7.05329 11.2201 7.05329 11.7267C7.05329 12.2334 6.63996 12.6334 6.13329 12.6334H2.66663V14.4734H3.69329C4.19996 14.4734 4.61329 14.8867 4.61329 15.3934C4.61329 15.9001 4.19996 16.3001 3.69329 16.3001H2.66663V16.6067C2.66663 17.3401 3.26663 17.9401 3.99996 17.9401H16.2C17.56 17.9401 18.6666 16.8334 18.6666 15.4734V4.39341C18.6666 3.71341 18.12 3.16675 17.44 3.16675Z" fill="url(#paint4_linear_2603_54)"/>
<path d="M2.75998 7.14014H2.55998H1.25331C0.746646 7.14014 0.333313 7.55347 0.333313 8.06014C0.333313 8.5668 0.746646 8.9668 1.25331 8.9668H2.46665H2.66665V8.0868C2.66665 7.7668 2.70665 7.4468 2.75998 7.14014Z" fill="url(#paint5_linear_2603_54)"/>
<path d="M2.46665 10.8069H1.25331C0.746646 10.8069 0.333313 11.2202 0.333313 11.7269C0.333313 12.2336 0.746646 12.6336 1.25331 12.6336H2.46665H2.66665V10.8069H2.46665Z" fill="url(#paint6_linear_2603_54)"/>
<path d="M2.46665 14.4734H1.25331C0.746646 14.4734 0.333313 14.8867 0.333313 15.3934C0.333313 15.9001 0.746646 16.3001 1.25331 16.3001H2.46665H2.66665V14.4734H2.46665Z" fill="url(#paint7_linear_2603_54)"/>
<defs>
<linearGradient id="paint0_linear_2603_54" x1="28.8525" y1="7.16675" x2="-0.0993489" y2="21.6298" gradientUnits="userSpaceOnUse">
<stop stop-color="#2878FF"/>
<stop offset="1" stop-color="#2C65C8"/>
</linearGradient>
<linearGradient id="paint1_linear_2603_54" x1="13.2372" y1="24.5" x2="6.89242" y2="26.8772" gradientUnits="userSpaceOnUse">
<stop stop-color="#2878FF"/>
<stop offset="1" stop-color="#2C65C8"/>
</linearGradient>
<linearGradient id="paint2_linear_2603_54" x1="23.9038" y1="24.5" x2="17.5591" y2="26.8772" gradientUnits="userSpaceOnUse">
<stop stop-color="#2878FF"/>
<stop offset="1" stop-color="#2C65C8"/>
</linearGradient>
<linearGradient id="paint3_linear_2603_54" x1="29.2372" y1="12.5" x2="22.5982" y2="14.4899" gradientUnits="userSpaceOnUse">
<stop stop-color="#2878FF"/>
<stop offset="1" stop-color="#2C65C8"/>
</linearGradient>
<linearGradient id="paint4_linear_2603_54" x1="18.3781" y1="3.16675" x2="-0.25931" y2="10.7294" gradientUnits="userSpaceOnUse">
<stop stop-color="#2878FF"/>
<stop offset="1" stop-color="#2C65C8"/>
</linearGradient>
<linearGradient id="paint5_linear_2603_54" x1="2.71622" y1="7.14014" x2="0.0777672" y2="8.45339" gradientUnits="userSpaceOnUse">
<stop stop-color="#2878FF"/>
<stop offset="1" stop-color="#2C65C8"/>
</linearGradient>
<linearGradient id="paint6_linear_2603_54" x1="2.62457" y1="10.8069" x2="0.0490153" y2="12.0395" gradientUnits="userSpaceOnUse">
<stop stop-color="#2878FF"/>
<stop offset="1" stop-color="#2C65C8"/>
</linearGradient>
<linearGradient id="paint7_linear_2603_54" x1="2.62457" y1="14.4734" x2="0.049015" y2="15.706" gradientUnits="userSpaceOnUse">
<stop stop-color="#2878FF"/>
<stop offset="1" stop-color="#2C65C8"/>
</linearGradient>
</defs>
</svg>
