<svg width="32" height="32" viewBox="0 0 32 32" fill="none" xmlns="http://www.w3.org/2000/svg">
<path d="M21.5867 2.66663H10.4133C5.55999 2.66663 2.66666 5.55996 2.66666 10.4133V21.5733C2.66666 26.44 5.55999 29.3333 10.4133 29.3333H21.5733C26.4267 29.3333 29.32 26.44 29.32 21.5866V10.4133C29.3333 5.55996 26.44 2.66663 21.5867 2.66663ZM22.6667 23H9.33332C8.78666 23 8.33332 22.5466 8.33332 22C8.33332 21.4533 8.78666 21 9.33332 21H22.6667C23.2133 21 23.6667 21.4533 23.6667 22C23.6667 22.5466 23.2133 23 22.6667 23ZM22.6667 17H9.33332C8.78666 17 8.33332 16.5466 8.33332 16C8.33332 15.4533 8.78666 15 9.33332 15H22.6667C23.2133 15 23.6667 15.4533 23.6667 16C23.6667 16.5466 23.2133 17 22.6667 17ZM22.6667 11H9.33332C8.78666 11 8.33332 10.5466 8.33332 9.99996C8.33332 9.45329 8.78666 8.99996 9.33332 8.99996H22.6667C23.2133 8.99996 23.6667 9.45329 23.6667 9.99996C23.6667 10.5466 23.2133 11 22.6667 11Z" fill="url(#paint0_linear_2603_203)"/>
<defs>
<linearGradient id="paint0_linear_2603_203" x1="28.8394" y1="2.66662" x2="-2.87237" y2="14.5421" gradientUnits="userSpaceOnUse">
<stop stop-color="#2878FF"/>
<stop offset="1" stop-color="#2C65C8"/>
</linearGradient>
</defs>
</svg>
