<svg width="20" height="21" viewBox="0 0 20 21" fill="none" xmlns="http://www.w3.org/2000/svg">
<path d="M13.5417 18.8088C14.3471 18.8088 15 18.1559 15 17.3505C15 16.5451 14.3471 15.8922 13.5417 15.8922C12.7363 15.8922 12.0833 16.5451 12.0833 17.3505C12.0833 18.1559 12.7363 18.8088 13.5417 18.8088Z" fill="#121D2F"/>
<path d="M6.87499 18.8088C7.68041 18.8088 8.33332 18.1559 8.33332 17.3505C8.33332 16.5451 7.68041 15.8922 6.87499 15.8922C6.06957 15.8922 5.41666 16.5451 5.41666 17.3505C5.41666 18.1559 6.06957 18.8088 6.87499 18.8088Z" fill="#121D2F"/>
<path d="M4.03332 3.34216L3.86666 5.38383C3.83332 5.77549 4.14166 6.10049 4.53332 6.10049H17.2917C17.6417 6.10049 17.9333 5.83383 17.9583 5.48383C18.0667 4.00883 16.9417 2.80883 15.4667 2.80883H5.22499C5.14166 2.44216 4.97499 2.09216 4.71666 1.80049C4.29999 1.35883 3.71666 1.10049 3.11666 1.10049H1.66666C1.32499 1.10049 1.04166 1.38383 1.04166 1.72549C1.04166 2.06716 1.32499 2.35049 1.66666 2.35049H3.11666C3.37499 2.35049 3.61666 2.45883 3.79166 2.64216C3.96666 2.83383 4.04999 3.08383 4.03332 3.34216Z" fill="#121D2F"/>
<path d="M17.0917 7.35049H4.30833C3.95833 7.35049 3.67499 7.61716 3.64166 7.95883L3.34166 11.5838C3.22499 13.0088 4.34166 14.2255 5.76666 14.2255H15.0333C16.2833 14.2255 17.3833 13.2005 17.475 11.9505L17.75 8.05883C17.7833 7.67549 17.4833 7.35049 17.0917 7.35049Z" fill="#121D2F"/>
</svg>
