<svg width="32" height="32" viewBox="0 0 32 32" fill="none" xmlns="http://www.w3.org/2000/svg">
<path d="M25.4933 19.92L25.92 20.7867C26.1333 21.2134 26.68 21.6134 27.1333 21.6934L27.7067 21.7867C29.4533 22.08 29.8533 23.36 28.6133 24.6134L28.08 25.1467C27.72 25.5067 27.5333 26.2 27.64 26.7067L27.7067 27.0267C28.1867 29.1334 27.0667 29.9467 25.24 28.84L24.8533 28.6C24.3867 28.32 23.6133 28.32 23.1467 28.6L22.76 28.84C20.92 29.9467 19.8133 29.1334 20.2933 27.0267L20.36 26.7067C20.4667 26.2134 20.28 25.5067 19.92 25.1467L19.3867 24.6134C18.1467 23.3467 18.5467 22.08 20.2933 21.7867L20.8667 21.6934C21.3333 21.6134 21.8667 21.2134 22.08 20.7867L22.5067 19.92C23.3333 18.2534 24.6667 18.2534 25.4933 19.92Z" fill="url(#paint0_linear_2603_353)"/>
<path d="M21.5867 2.66663H10.4133C5.56 2.66663 2.66667 5.55996 2.66667 10.4133V21.5866C2.66667 26.44 5.56 29.3333 10.4133 29.3333H17.4533C17.92 29.3333 18.2533 28.8533 18.2 28.3866C18.1467 27.88 18.1733 27.28 18.3333 26.5866C18.36 26.4933 18.3333 26.3866 18.2533 26.3066L17.96 26.0133C16.8267 24.8666 16.4133 23.48 16.8133 22.2133C17.2267 20.96 18.3733 20.08 19.96 19.8133L20.36 19.7466L20.72 19.0266C21.4533 17.5333 22.6533 16.6666 24 16.6666C25.3467 16.6666 26.5467 17.5333 27.28 19.0266L27.48 19.44C27.5733 19.64 27.76 19.7733 27.9733 19.8133C28.0933 19.84 28.2133 19.8666 28.3333 19.8933C28.8 20.0133 29.3333 19.64 29.3333 19.1466V10.4133C29.3333 5.55996 26.44 2.66663 21.5867 2.66663ZM21.68 11.9466L18.6 15.92C18.2133 16.4133 17.6667 16.7333 17.04 16.8C16.4267 16.88 15.8 16.7066 15.32 16.32L12.88 14.4266C12.7867 14.3466 12.68 14.3466 12.6267 14.36C12.5733 14.36 12.48 14.3866 12.4 14.4933L9.22667 18.6133C9.02667 18.8666 8.73334 19 8.42667 19C8.21334 19 8 18.9333 7.81333 18.7866C7.37333 18.4533 7.29333 17.8266 7.62667 17.3866L10.8 13.2666C11.1867 12.7733 11.7333 12.4533 12.36 12.3733C12.9867 12.2933 13.6 12.4666 14.0933 12.8533L16.5333 14.7733C16.6267 14.8533 16.72 14.84 16.7867 14.84C16.84 14.84 16.9333 14.8133 17.0133 14.7066L20.0933 10.7333C20.4267 10.2933 21.0533 10.2133 21.4933 10.56C21.9467 10.8933 22.0133 11.52 21.68 11.9466Z" fill="url(#paint1_linear_2603_353)"/>
<defs>
<linearGradient id="paint0_linear_2603_353" x1="29.1409" y1="18.67" x2="16.4522" y2="23.4249" gradientUnits="userSpaceOnUse">
<stop stop-color="#2878FF"/>
<stop offset="1" stop-color="#2C65C8"/>
</linearGradient>
<linearGradient id="paint1_linear_2603_353" x1="28.8525" y1="2.66662" x2="-2.87123" y2="14.5525" gradientUnits="userSpaceOnUse">
<stop stop-color="#2878FF"/>
<stop offset="1" stop-color="#2C65C8"/>
</linearGradient>
</defs>
</svg>
