<svg width="32" height="32" viewBox="0 0 32 32" fill="none" xmlns="http://www.w3.org/2000/svg">
<path d="M21.5867 2.66663H10.4134C5.56002 2.66663 2.66669 5.55996 2.66669 10.4133V21.5733C2.66669 26.44 5.56002 29.3333 10.4134 29.3333H21.5734C26.4267 29.3333 29.32 26.44 29.32 21.5866V10.4133C29.3334 5.55996 26.44 2.66663 21.5867 2.66663ZM12.1467 22.5333C12.1467 22.9066 11.8534 23.2 11.48 23.2H7.76002C7.38669 23.2 7.09335 22.9066 7.09335 22.5333V16.3733C7.09335 15.5333 7.77335 14.8533 8.61335 14.8533H11.48C11.8534 14.8533 12.1467 15.1466 12.1467 15.52V22.5333ZM18.52 22.5333C18.52 22.9066 18.2267 23.2 17.8534 23.2H14.1334C13.76 23.2 13.4667 22.9066 13.4667 22.5333V10.32C13.4667 9.47996 14.1467 8.79996 14.9867 8.79996H17.0134C17.8534 8.79996 18.5334 9.47996 18.5334 10.32V22.5333H18.52ZM24.9067 22.5333C24.9067 22.9066 24.6134 23.2 24.24 23.2H20.52C20.1467 23.2 19.8534 22.9066 19.8534 22.5333V17.8C19.8534 17.4266 20.1467 17.1333 20.52 17.1333H23.3867C24.2267 17.1333 24.9067 17.8133 24.9067 18.6533V22.5333Z" fill="url(#paint0_linear_2603_124)"/>
<defs>
<linearGradient id="paint0_linear_2603_124" x1="28.8394" y1="2.66662" x2="-2.87234" y2="14.5421" gradientUnits="userSpaceOnUse">
<stop stop-color="#2878FF"/>
<stop offset="1" stop-color="#2C65C8"/>
</linearGradient>
</defs>
</svg>
